<svg width="256" height="46" viewBox="0 0 256 46" fill="none" xmlns="http://www.w3.org/2000/svg">
<g clip-path="url(#clip0_65_2019)">
<path fill-rule="evenodd" clip-rule="evenodd" d="M0.0717773 22.9136C0.0717773 10.2954 10.3153 0.0534668 22.9319 0.0534668C35.5635 0.0534668 45.792 10.2804 45.792 22.9136C45.792 35.5468 35.5635 45.7737 22.9319 45.7737C10.3002 45.7737 0.0717773 35.5318 0.0717773 22.9136ZM26.9271 13.8898H13.89L11.9073 17.0632H24.9446L26.9271 13.8898ZM33.701 26.5682L35.6837 29.7264L35.6687 29.7415H39.4086L29.5106 13.8898L21.5952 26.5682H12.6283L14.6109 23.3949H20.6789L22.6615 20.2215H9.95479L7.97218 23.3949H10.886L6.92079 29.7264H23.3674L29.5256 19.8606L31.7334 23.3949H29.901L27.9185 26.5682H33.701ZM157.475 20.2233C158.414 18.8057 160.144 17.9253 162.158 17.9253C165.902 17.9253 168.004 20.6411 168.004 24.3118V33.9662H164.008V24.6252C164.008 22.5809 162.591 21.1932 160.742 21.1932C158.892 21.1932 157.475 22.6405 157.475 24.461V33.9513H153.478V18.2686H157.475V20.2233ZM129.886 21.1037V18.2686H125.889V33.9513H129.886V25.6547C129.886 23.521 131.766 21.2826 134.972 21.79V17.9851C132.556 17.7014 130.826 19.0593 129.886 21.1037ZM79.0604 33.9662H75.0636V11.9567L79.0604 10.7032V33.9662ZM143.411 17.9552C138.819 17.9552 135.12 21.3872 135.12 26.1322C135.12 30.8774 138.834 34.2796 143.411 34.2796C147.99 34.2796 151.704 30.8476 151.704 26.1322C151.704 21.417 147.99 17.9552 143.411 17.9552ZM143.411 30.6685C140.995 30.6685 139.071 28.8182 139.071 26.177C139.071 23.5359 140.995 21.6408 143.411 21.6408C145.828 21.6408 147.751 23.4613 147.751 26.177C147.751 28.8928 145.842 30.6685 143.411 30.6685ZM80.8199 26.1025C80.8199 21.3574 84.4737 17.9254 88.9626 17.9254V17.9404C92.855 17.9404 97.1352 20.7904 97.1352 26.8338C97.1352 26.9273 97.1283 27.0173 97.1212 27.1106C97.1133 27.2108 97.1054 27.3146 97.1054 27.4306H85.0106C85.5474 29.4002 87.3072 30.7283 89.4399 30.7283C90.6628 30.7283 91.7962 30.2508 92.4524 29.2809H96.8817C95.6886 32.2951 94.0779 34.2797 89.3653 34.2797C84.6527 34.2797 80.8199 30.8477 80.8199 26.1025ZM88.9626 21.4172C87.1133 21.4172 85.5772 22.6408 85.0403 24.5656H92.7954C92.4524 22.7004 90.8119 21.4172 88.9626 21.4172ZM119.803 13.6875L115.88 14.9409V29.9074C115.88 32.3247 117.58 33.9661 120.474 33.9661H124.367V30.4147H121.608C120.384 30.4147 119.818 29.8477 119.818 28.8032V21.6706H124.382V18.2684H119.818V13.6726L119.803 13.6875ZM110.542 24.4312C109.915 22.7451 108.439 21.6707 106.679 21.6707V21.6557C104.308 21.6557 102.429 23.5508 102.429 26.192C102.429 28.8331 104.919 30.6834 106.679 30.6834C108.439 30.6834 109.915 29.624 110.542 27.9229H114.598C113.838 31.7279 111.198 34.2796 106.679 34.2796C102.16 34.2796 98.4767 30.8774 98.4767 26.1322C98.4767 21.3872 102.787 17.9552 106.679 17.9552C110.572 17.9552 113.838 20.6262 114.598 24.4312H110.542ZM226.152 21.1037V18.2686H222.156V33.9513H226.152V25.6547C226.152 23.521 228.032 21.2826 231.238 21.79V17.9851C228.822 17.7014 227.092 19.0593 226.152 21.1037ZM73.2587 33.9661H57.2864V11.9565H73.2587V15.8212H61.6858V20.9842H71.0515V24.7892H61.6858V30.161H73.2587V33.9661ZM198.575 33.9662H203.035L205.198 29.2807H214.369L216.607 33.9662H221.199L209.88 11.0166L198.561 33.9662H198.575ZM206.778 25.9234L209.732 19.5071L212.773 25.9234H206.778ZM246.017 22.4018C246.017 23.5657 247.672 23.9984 249.626 24.5058V24.4909C252.296 25.1922 255.502 26.3263 255.502 29.3405C255.502 32.3546 253.056 34.2796 249.06 34.2796C245.062 34.2796 242.11 31.8772 241.767 28.5197H245.406C245.615 30.1462 247.598 31.2504 249.045 31.2504C250.491 31.2504 251.535 30.8476 251.535 29.7135C251.535 28.6108 249.985 28.1995 248.143 27.7111L247.986 27.6692C245.316 26.9828 242.11 25.7443 242.11 22.7301C242.11 19.7159 244.317 17.9253 248.18 17.9253C252.042 17.9253 254.906 20.2979 255.248 23.6553H251.61C251.356 22.0287 249.97 20.9545 248.12 20.9545C247.016 20.9545 246.017 21.238 246.017 22.4018ZM236.531 13.6875L232.608 14.9409V29.9074C232.608 32.3247 234.308 33.9661 237.202 33.9661H241.095V30.4147H238.336C237.112 30.4147 236.546 29.8477 236.546 28.8032V21.6706H241.11V18.2684H236.546V13.6726L236.531 13.6875ZM170.225 18.2833H174.222V33.966H170.225V18.2833ZM172.209 11.1658C170.823 11.1658 169.659 12.3296 169.659 13.7473C169.659 15.1648 170.823 16.3286 172.209 16.3286C173.597 16.3286 174.789 15.1648 174.789 13.7473C174.789 12.3296 173.627 11.1658 172.209 11.1658ZM188.048 24.4312C187.422 22.7451 185.945 21.6707 184.186 21.6707V21.6557C181.829 21.6557 179.95 23.5508 179.95 26.192C179.95 28.8331 182.426 30.6834 184.186 30.6834C185.945 30.6834 187.422 29.624 188.048 27.9229H192.105C191.359 31.7279 188.705 34.2796 184.186 34.2796C179.667 34.2796 175.983 30.8774 175.983 26.1322C175.983 21.3872 180.293 17.9552 184.186 17.9552C188.077 17.9552 191.344 20.6262 192.105 24.4312H188.048Z" fill="#54504A"/>
</g>
<defs>
<clipPath id="clip0_65_2019">
<rect width="255.587" height="45.8333" fill="white"/>
</clipPath>
</defs>
</svg>
