<svg width="70" height="42" viewBox="0 0 70 42" fill="none" xmlns="http://www.w3.org/2000/svg">
<g clip-path="url(#clip0_58_7452)">
<path d="M63.5533 13.2746C63.5533 12.4375 63.9798 11.937 64.8114 11.937C65.815 11.937 66.0273 12.7583 66.0273 13.4467V16.2426L69.6846 15.2557V13.5506C69.6846 10.5097 67.913 8.54443 64.9526 8.54443C63.2876 8.54443 62.0679 9.08789 61.1568 10.1168C60.315 11.0634 59.8763 12.3935 59.8763 13.964C59.8763 19.319 65.9488 23.5048 65.9488 28.0292C65.9488 29.045 65.4811 29.5389 64.5055 29.5389C63.5982 29.5389 63.138 28.9964 63.138 27.9254V24.8957L59.4404 25.8844V27.8225C59.4404 30.9092 61.2841 32.8286 64.4793 32.8286C65.8767 32.8286 67.0048 32.4545 67.9159 31.6613C68.9887 30.7203 69.6257 29.5099 69.6257 27.7598C69.6257 22.0409 63.5533 18.0001 63.5533 13.2746Z" fill="#54504A"/>
<path d="M54.5713 8.9292L53.6162 16.9669L52.9952 24.2291L52.8698 20.0723L51.5472 8.9292H48.4389L47.4755 17.0445L46.861 24.2301L46.7412 20.0377L45.4224 8.9292H41.5967L44.7358 32.4436H48.5605L49.7326 23.3807L49.727 19.2398L50.1582 22.6437L51.4256 32.4436H55.2578L58.3969 8.9292H54.5713Z" fill="#54504A"/>
<path d="M25.1405 8.92896V17.0153L25.523 22.4451L24.3875 17.5148L21.3737 8.92896H17.9736V32.4433H21.8002V24.8266H21.7956L21.3831 18.7364L22.0491 21.7539L25.8018 32.4433H28.9671V8.92896H25.1405Z" fill="#54504A"/>
<path d="M35.3174 22.5997H38.999V18.774H35.3174V12.7558H39.4218L40.0541 8.9292H31.4917V32.4445H39.4218L40.0541 28.6179H35.3174V22.5997Z" fill="#54504A"/>
<path d="M11.462 32.3408H1.04004V41.2503H11.462V32.3408Z" fill="#54504A"/>
<path d="M12.3301 5.73104L12.5293 0H0L1.04668 29.7103H11.4855L11.6866 24.2758H6.70289V16.6412H11.9457L12.1224 11.6239H6.77959V5.73104H12.3301Z" fill="#54504A"/>
</g>
<defs>
<clipPath id="clip0_58_7452">
<rect width="69.6854" height="41.25" fill="white"/>
</clipPath>
</defs>
</svg>
