<svg width="120" height="54" viewBox="0 0 120 54" fill="none" xmlns="http://www.w3.org/2000/svg">
<path d="M94.5128 22.9614C95.1306 22.965 95.4992 23.0351 96.5136 24.4111C96.633 24.5972 96.9278 24.9868 97.2718 25.4396C97.7668 26.0925 98.36 26.8753 98.7251 27.4369C98.4548 27.4159 98.1318 27.3913 98.1318 27.3913C98.1318 27.3913 97.2087 27.3281 97.0683 27.3176C95.0534 24.3971 94.2285 23.1334 94.1337 22.979L94.1301 22.9754C94.2003 22.9649 94.3162 22.9579 94.5128 22.9614ZM94.0635 19.3318L92.7121 19.3355L91.4589 19.3318C90.0724 19.3282 88.8789 19.3213 87.7802 19.402C86.6183 19.4862 86.0181 20.3147 86.0251 21.0869C86.0426 22.3717 87.215 24.4287 88.5735 26.8156C89.0509 27.6476 89.5388 28.5076 90.0232 29.4062C91.329 31.8072 92.7928 34.4223 93.5756 35.8299L93.9968 36.5776L94.0775 36.5916C96.5663 36.9636 98.5917 37.2831 100.382 37.5639C101.951 37.8131 103.309 38.0272 104.436 38.1887L104.819 38.2449L101.905 34.1344C101.112 33.0182 100.845 32.6426 100.515 32.1581C100.782 32.1898 101.059 32.2248 101.337 32.2634C101.337 32.2634 102.242 32.3758 102.369 32.3898C102.776 32.9199 103.45 33.8115 104.226 34.8435C105.156 36.0755 106.209 37.4726 107.093 38.6205L107.136 38.6766L107.202 38.6838C108.582 38.8804 111.495 39.4561 114.061 39.9615C115.929 40.3301 117.691 40.6776 118.681 40.8461L119.155 40.9269L118.832 40.5724C116.174 37.6659 107.536 28.0022 107.441 27.8969L105.528 25.7031C104.103 24.0638 102.979 22.7685 101.909 21.7576C100.894 20.7993 99.6553 20.0656 98.6022 19.7989C96.7172 19.318 96.2574 19.3213 94.0635 19.3318ZM41.2627 24.9903C41.4101 24.5656 41.5646 24.1233 41.8103 23.5932L41.9718 23.2387C42.235 22.642 42.2491 22.6069 42.8599 22.6279C43.0599 22.6243 43.3021 22.6455 43.3969 22.7859C43.425 22.835 43.4426 22.8982 43.4426 22.9754C43.4426 23.1159 43.3899 23.3054 43.2846 23.5301C43.1653 23.839 43.0038 24.3269 42.8493 24.7937C42.6773 25.3168 42.4983 25.8503 42.379 26.1346C42.2175 26.1382 41.5646 26.1557 41.5646 26.1557C41.5646 26.1557 41.0977 26.1697 40.8064 26.1767C40.9995 25.7379 41.1328 25.3589 41.2627 24.9903ZM34.4529 23.0702C33.7227 24.5199 32.5784 26.5594 31.3674 28.7147C29.8264 31.4597 28.2327 34.2959 27.3622 36.1669L27.2358 36.4336L27.5272 36.402C29.9738 36.1317 34.6143 35.6894 37.1277 35.4753L37.2259 35.4648L37.2646 35.3806C37.577 34.7101 37.928 33.7273 38.2685 32.7725C38.5879 31.8669 38.9214 30.9367 39.2163 30.2838C39.3672 30.2766 39.8621 30.2451 39.8621 30.2451C39.8621 30.2451 40.6239 30.1995 40.9503 30.1784C40.8731 30.4031 40.7678 30.6979 40.7678 30.6979C40.3044 32.0108 39.6691 33.8045 39.2198 35.0015L39.1285 35.2402L39.9113 35.1875C42.4387 35.0085 46.2578 34.7417 48.5184 34.6364L48.6447 34.6292L48.6728 34.5064C49.0273 32.8425 49.273 31.5753 49.5117 30.3503C49.8522 28.6162 50.1717 26.9769 50.7684 24.3057C51.1931 22.4101 51.0913 21.0973 50.4595 20.297C49.7996 19.4615 48.6903 19.3387 47.8022 19.3282C47.7987 19.3282 43.6883 19.3107 43.6883 19.3107L40.5185 19.3001C37.1312 19.2861 35.5516 21.1958 34.4529 23.0702ZM77.5128 26.3418C77.0951 24.9236 76.6633 23.4634 76.3685 22.3927C76.565 22.4033 77.4882 22.4454 77.4882 22.4454C78.3061 22.5051 78.5729 23.3089 78.8081 24.0145L78.8537 24.1549C79.0678 24.7867 79.8892 27.0754 80.4298 28.5918L80.6755 29.2728C80.851 29.7642 80.8686 30.1117 80.7247 30.3083C80.5386 30.5575 80.0542 30.5646 79.7067 30.547C79.7067 30.547 78.8607 30.4943 78.7098 30.4838C78.4149 29.4062 77.9586 27.8512 77.5128 26.3418ZM74.6835 19.2616L70.6994 19.2688L67.7087 19.2933L67.8597 19.5426C68.4985 20.5816 69.4849 23.3933 70.1413 27.1071L70.4292 28.7183C70.8644 31.1684 71.0645 32.2847 71.3839 34.3978L71.405 34.5347L71.5419 34.5383C74.2693 34.6401 78.0814 34.9385 81.4442 35.2018L84.986 35.4756C84.9896 35.4756 85.674 35.5352 85.674 35.5352C86.8956 35.6581 88.419 35.8126 89.5142 34.9947C90.1496 34.5208 90.5673 34.1101 90.5673 32.7762C90.5673 31.4458 89.4756 29.5012 88.3207 27.4407L87.6784 26.2893L87.0149 25.0713C85.846 22.9265 84.8386 21.0731 84.2699 20.5606C83.4731 19.8446 82.6552 19.2513 80.7316 19.2513L74.6835 19.2616ZM61.1832 19.4828C61.1832 19.4828 61.2289 23.3721 61.2394 24.1163C60.8462 23.3861 60.4426 22.5753 60.0424 21.782C59.6422 20.9746 59.2245 20.1392 58.8349 19.4126L58.7857 19.3284L51.4775 19.3212L51.5687 19.5494C51.9092 20.4094 51.8425 21.9749 51.7302 22.6208L51.3335 24.7269C50.8105 27.4895 49.933 32.1054 49.589 34.194L49.5538 34.3906L51.0421 34.3519C53.229 34.2958 56.2197 34.2185 58.0521 34.208H58.21L58.2136 34.05C58.2346 33.4709 58.2873 32.5266 58.3435 31.5262C58.4207 30.1677 58.5015 28.6759 58.5366 27.6018C59.3053 29.5429 60.6708 32.6495 61.443 34.1202L61.4887 34.2081H61.5905C63.2368 34.2186 65.8343 34.2923 67.9194 34.352L70.0501 34.4081L70.0256 34.2186C69.8185 32.4424 69.3586 29.6904 68.9128 27.0261C68.4425 24.2039 67.9545 21.2869 67.7544 19.4721L67.7369 19.3247L64.2513 19.3211L61.1798 19.3175L61.1832 19.4828ZM25.3824 22.8912C25.9511 22.8772 26.0564 22.9439 26.074 22.9754C26.0845 22.9929 26.1056 23.0772 25.916 23.4247C25.7019 23.8178 25.407 24.218 25.1192 24.6041L24.6348 25.2781L24.6384 25.2745C23.8415 26.4645 23.0728 27.1385 22.4726 27.1771C22.4726 27.1771 22.0127 27.2086 21.6757 27.2297C22.0092 26.7839 23.3115 25.0534 23.3115 25.0534C23.9293 24.239 24.5155 23.4668 24.9262 22.9016C25.0034 22.9016 25.3824 22.8912 25.3824 22.8912ZM29.177 19.2406L28.475 19.2651L25.0139 19.2441L19.738 19.2124L19.6889 19.3002C18.52 21.4134 17.4002 22.6665 15.8522 24.4041C15.3432 24.9728 14.771 25.6151 14.1497 26.3418C12.7737 27.9354 11.7382 29.0516 9.68121 31.2736C7.82431 33.2744 5.01612 36.3003 0.31943 41.4568L0 41.8078L0.47037 41.7306C1.54099 41.5551 3.57693 41.1234 5.73572 40.6635C8.407 40.0949 11.166 39.5087 12.4824 39.3261L12.549 39.3189L12.5912 39.2627C13.6688 37.806 14.6763 36.5178 15.5679 35.3805C16.663 33.9799 17.5336 32.8707 18.004 32.1089C18.1584 32.0949 20.8437 31.8106 20.8437 31.8106C22.3847 31.6421 23.9748 31.4701 24.8454 31.3964C26.7865 31.27 29.2086 29.8694 30.2371 28.9638C30.8654 28.4092 32.0133 26.6856 32.6416 25.3447C32.638 25.3552 33.1365 24.4496 33.1365 24.4496C33.965 22.9543 34.4634 22.0486 34.6881 21.4203C34.839 20.9991 34.7828 20.5602 34.5301 20.1776C34.1615 19.623 33.4384 19.2615 32.5924 19.2159C31.413 19.1492 30.0124 19.2055 29.177 19.2406Z" fill="#54504A"/>
<path d="M32.6664 19.4441C32.6664 19.4441 30.9464 15.9515 30.1074 14.3157C30.8621 12.9783 31.673 11.5777 32.4417 10.2509C30.6059 10.0578 28.6648 9.82962 26.8289 9.60497C26.2883 10.7809 25.7513 12.0867 25.2177 13.2662C25.2249 12.0165 25.2282 10.6405 25.2317 9.39435C24.2418 9.25746 20.3385 8.49576 19.3696 8.34131C19.7136 9.80858 19.826 11.5426 19.833 13.0485H19.8365C19.833 15.0353 19.833 19.4196 19.833 19.4196H25.2317L25.2177 15.0669L26.8289 19.4196L32.6664 19.4441Z" fill="#54504A"/>
<path d="M93.5582 9.4926C93.7828 10.2262 93.9478 10.9037 93.9654 11.9182C93.9654 13.396 93.9654 14.7193 93.9654 16.1971C93.9654 16.7693 93.9408 17.1554 93.4564 17.18C92.9685 17.201 92.807 16.8641 92.807 16.2989C92.807 14.0734 92.807 11.848 92.807 9.61897C90.8834 9.8717 88.7983 10.2613 86.8677 10.4755C87.2082 11.8093 87.317 13.08 87.3521 14.456C87.3521 14.4526 87.3556 14.4526 87.3556 14.4488C87.3556 15.4001 87.3556 16.4286 87.3556 17.3799C87.3556 18.2785 88.0681 19.5071 90.4165 19.5071C91.8627 19.4826 93.8249 19.4791 96.0013 19.4861C97.0157 19.5036 98.1249 19.3878 98.9604 18.7664C99.4694 18.3873 99.6484 17.8924 99.6484 16.9025C99.6484 14.2242 99.6484 11.1492 99.6484 8.47095C98.1706 8.71667 94.0601 9.42239 93.5582 9.4926Z" fill="#54504A"/>
<path d="M65.9361 15.1861C65.9361 15.1861 66.7224 16.2883 66.74 17.057C66.7435 17.3659 66.7014 17.559 66.6031 17.6854C66.4592 17.8679 66.2591 17.9416 66.0028 17.9451C65.55 17.9486 65.3464 17.5344 65.3464 17.1342C65.3464 16.0987 65.3464 15.1475 65.3464 14.1119C65.3464 13.6872 65.55 13.4941 66.0239 13.4836C66.0484 13.4836 66.0731 13.4836 66.0976 13.4871C66.0976 13.4836 66.0976 13.4836 66.0976 13.4836C67.8562 13.4626 69.8395 13.4976 71.4858 14.2032C71.4858 13.3081 71.4858 12.3358 71.4858 11.4407C69.7412 11.5109 67.7614 11.5705 66.0169 11.6162C65.0691 11.6337 64.1213 11.6478 63.1736 11.6548C62.0678 11.6476 59.895 11.7566 59.9266 13.3362C59.9266 14.7649 59.9266 16.19 59.9266 17.6152C59.9266 18.4155 60.06 18.7069 60.583 19.0158C61.2956 19.4265 62.1626 19.5352 62.9875 19.5037C65.9782 19.5002 69.2077 19.458 72.1984 19.4405C72.1984 17.889 72.1984 16.6007 72.1984 15.0492C70.1379 15.1054 67.9966 15.151 65.9361 15.1861Z" fill="#54504A"/>
<path d="M76.9585 11.3111C77.478 12.3431 77.5833 13.5225 77.6395 14.6634C77.6395 16.3237 77.6395 17.798 77.6395 19.4618C79.3981 19.4443 81.3147 19.4828 83.0698 19.4618C83.0698 18.3596 83.0698 17.3065 83.0698 16.2043C83.7052 16.1798 84.0211 16.1657 84.6529 16.1342C85.8464 16.1903 86.2922 16.6467 86.2922 16.6467C86.2922 15.7621 86.2922 14.881 86.2922 13.9965C85.2181 14.0701 84.1439 14.1404 83.0698 14.2071C83.0698 13.6279 83.0698 13.3365 83.0698 12.7573C83.5858 12.7187 83.8455 12.6977 84.3616 12.6591C85.8078 12.6451 86.2922 13.0733 86.2922 13.0733C86.2922 12.1957 86.2922 11.3216 86.2922 10.4441C83.2383 10.76 80.0229 11.1005 76.9585 11.3111Z" fill="#54504A"/>
<path d="M53.6605 11.5845C53.6605 12.7253 53.6605 14.0276 53.6605 15.172C52.9444 14.0171 52.2283 12.6972 51.5157 11.5389C49.8273 11.4862 48.1424 11.4195 46.454 11.3458C46.2153 11.3353 46.0994 11.3283 45.8607 11.3178C46.2574 12.0303 46.4364 12.8447 46.454 13.6591C46.454 15.6002 46.454 17.5414 46.454 19.4861C48.1424 19.4966 49.8308 19.5036 51.5157 19.5107C51.5157 18.9174 51.5157 18.6226 51.5157 18.0258C51.5157 17.9662 51.5123 17.903 51.5085 17.8328C51.5085 17.1062 51.5085 16.7446 51.5085 16.018C52.4879 17.6187 53.2004 18.7665 53.6533 19.5037C55.3347 19.5071 57.0196 19.5283 58.701 19.5283C58.701 16.9026 58.701 14.277 58.701 11.6513C57.0196 11.6408 55.3419 11.616 53.6605 11.5845ZM39.4581 10.9211C39.4581 10.9211 39.8793 11.753 39.8758 13.0448C39.8758 14.3295 39.8758 15.7476 39.8758 17.0289C39.8758 17.5273 39.6898 17.7134 39.1878 17.6993C38.6894 17.6888 38.5244 17.5168 38.5244 17.0148C38.5244 15.1895 38.5244 12.9921 38.5244 10.8474C36.5446 10.6859 34.5719 10.5069 32.5991 10.3103C32.9361 11.6653 33.0519 12.9675 33.0941 14.3611C33.0941 14.3611 33.0941 14.3576 33.0941 14.3539C33.0941 15.2982 33.0941 16.2424 33.0941 17.1867C33.0941 18.0747 33.2029 18.3836 33.7399 18.7768C34.4385 19.2928 35.3652 19.4999 36.2357 19.4648C38.0084 19.4858 39.7881 19.5069 41.5607 19.5245C42.5857 19.549 43.6844 19.5034 44.6006 19.0155C45.1306 18.7346 45.3096 18.3591 45.3096 17.5833C45.3096 15.4877 45.3096 13.3956 45.3096 11.3C43.7862 11.2192 39.9741 10.9597 39.4581 10.9211Z" fill="#54504A"/>
<path d="M41.863 0.017833C42.8452 -0.061374 43.5022 0.11776 44.326 0.66599C44.9631 1.21949 45.3058 1.91361 45.4137 2.73807C45.4684 3.7973 45.2747 4.51879 44.5853 5.33272C43.9652 5.93292 43.258 6.21939 42.3896 6.25634C42.3014 6.25099 42.2132 6.24565 42.1223 6.24014C42.0795 6.36847 42.0367 6.49681 41.9926 6.62903C41.8643 6.6932 41.8643 6.6932 41.7334 6.75866C41.6906 6.887 41.6478 7.01533 41.6037 7.14755C41.2716 7.30149 41.2716 7.30149 40.9556 7.40682C40.87 7.32126 40.7845 7.2357 40.6963 7.14755C40.8247 7.14755 40.953 7.14755 41.0852 7.14755C41.2685 6.80545 41.3927 6.49017 41.4741 6.1105C41.2602 6.02495 41.0463 5.93939 40.826 5.85124C41.1655 5.62487 41.3494 5.54178 41.7334 5.46235C41.5062 4.52771 41.1123 3.93758 40.4371 3.25862C40.8259 3.25862 40.8259 3.25862 41.1743 3.58269C41.5097 3.88259 41.7211 3.95126 42.1709 3.94728C42.3259 3.93391 42.481 3.92055 42.6408 3.90677C42.6141 3.78378 42.5873 3.6608 42.5598 3.53408C42.5437 3.4004 42.5277 3.26672 42.5112 3.12898C42.5967 3.04343 42.6823 2.95787 42.7704 2.86972C43.1107 2.91833 43.1107 2.91833 43.4186 2.99935C43.4346 3.07154 43.4507 3.14373 43.4672 3.21811C43.556 3.54655 43.6767 3.85222 43.8075 4.16603C44.0976 3.2274 44.1777 2.38407 43.7346 1.47619C43.4026 0.950924 42.9115 0.703191 42.3815 0.406727C42.2066 0.279911 42.0324 0.151937 41.863 0.017833ZM38.363 1.83267C38.4913 1.87545 38.6196 1.91823 38.7518 1.9623C38.6663 1.9623 38.5807 1.9623 38.4926 1.9623C38.4926 3.75899 38.4926 5.55568 38.4926 7.40682C38.4498 7.40682 38.407 7.40682 38.363 7.40682C38.363 5.56735 38.363 3.72788 38.363 1.83267ZM38.7518 1.9623C39.0111 2.09193 39.0111 2.09193 39.0111 2.09193L38.7518 1.9623ZM39.0111 2.09193C39.1394 2.13471 39.2678 2.17749 39.4 2.22157C39.2717 2.22157 39.1433 2.22157 39.0111 2.22157C39.0111 2.17879 39.0111 2.13601 39.0111 2.09193ZM39.4 2.3512C39.5283 2.39398 39.6567 2.43675 39.7889 2.48083C39.6606 2.48083 39.5322 2.48083 39.4 2.48083C39.4 2.43805 39.4 2.39527 39.4 2.3512ZM39.7889 2.61046C39.9172 2.65324 40.0456 2.69602 40.1778 2.74009C40.0495 2.74009 39.9211 2.74009 39.7889 2.74009C39.7889 2.69731 39.7889 2.65453 39.7889 2.61046ZM45.8816 2.99935C46.4406 2.98796 46.9996 2.98112 47.5587 2.97505C47.7158 2.97179 47.873 2.96853 48.0349 2.96517C48.9263 2.95793 49.7391 2.97875 50.5483 3.38825C50.6339 3.4738 50.7194 3.55936 50.8076 3.64751C51.0752 3.68906 51.0752 3.68906 51.3818 3.68751C51.5525 3.6924 51.5525 3.6924 51.7266 3.69739C51.9663 3.70193 52.206 3.70598 52.4457 3.70954C52.5598 3.71297 52.6739 3.71639 52.7915 3.71992C52.8958 3.72166 53 3.72341 53.1074 3.72521C53.4635 3.78837 53.6479 3.93235 53.9187 4.16603C53.8863 4.40909 53.8863 4.40909 53.7891 4.68456C53.5237 4.83141 53.5237 4.83141 53.2706 4.94382C53.3907 5.09619 53.5125 5.24717 53.6351 5.39753C53.7367 5.52386 53.7367 5.52386 53.8402 5.65274C54.0473 5.89598 54.0473 5.89598 54.4372 5.85124C54.4225 5.55409 54.406 5.25703 54.3886 4.96003C54.3751 4.71188 54.3751 4.71188 54.3613 4.45872C54.3501 4.02595 54.3501 4.02595 54.0483 3.77714C54.9039 3.77714 55.7595 3.77714 56.641 3.77714C56.7051 4.09798 56.7051 4.09798 56.7706 4.4253C56.685 4.4253 56.5995 4.4253 56.5113 4.4253C56.5113 4.72475 56.5113 5.02419 56.5113 5.33272C56.383 5.33272 56.2547 5.33272 56.1224 5.33272C56.1224 5.24716 56.1224 5.1616 56.1224 5.07345C55.9086 5.07345 55.6947 5.07345 55.4743 5.07345C55.5385 5.45846 55.5385 5.45846 55.6039 5.85124C56.0357 5.86403 56.0357 5.86403 56.5113 5.72161C56.7896 5.43011 56.9651 5.0966 57.1514 4.74127C57.2287 4.60304 57.2287 4.60304 57.3076 4.46201C57.4339 4.23527 57.5564 4.0064 57.678 3.77714C57.9712 3.79385 57.9712 3.79385 58.3262 3.90677C58.588 4.2506 58.588 4.2506 58.8204 4.67646C58.8988 4.81666 58.9771 4.95686 59.0579 5.1013C59.2336 5.46235 59.2336 5.46235 59.2336 5.72161C59.3191 5.72161 59.4047 5.72161 59.4929 5.72161C59.4929 5.12271 59.4929 4.52382 59.4929 3.90677C59.3645 3.86399 59.2362 3.82122 59.104 3.77714C59.5935 3.71442 60.0427 3.68759 60.5299 3.77714C60.8849 4.07106 61.1102 4.39917 61.3077 4.81419C61.3077 4.89975 61.3077 4.9853 61.3077 5.07345C61.3932 5.07345 61.4788 5.07345 61.567 5.07345C61.6017 4.97988 61.6365 4.8863 61.6723 4.78989C61.7231 4.66957 61.7739 4.54926 61.8262 4.4253C61.8984 4.24884 61.8984 4.24884 61.9721 4.06881C62.2542 3.73024 62.3372 3.7245 62.7579 3.67182C63.0026 3.65978 63.0026 3.65978 63.2522 3.64751C63.0894 3.32203 62.928 3.27531 62.604 3.12898C62.604 3.08621 62.604 3.04343 62.604 2.99935C63.4168 2.99935 64.2296 2.99935 65.067 2.99935C64.9387 3.12769 64.8103 3.25602 64.6781 3.38825C64.7343 3.51007 64.7343 3.51007 64.7915 3.63434C64.8397 3.74029 64.8878 3.84623 64.9374 3.95538C64.9855 4.06066 65.0336 4.16593 65.0832 4.2744C65.1966 4.55493 65.1966 4.55493 65.1966 4.81419C65.2822 4.81419 65.3677 4.81419 65.4559 4.81419C65.504 4.65377 65.504 4.65377 65.5531 4.49011C65.7394 3.96851 65.9775 3.48939 66.2337 2.99935C66.5912 2.95175 66.5912 2.95175 67.0115 2.99935C67.2859 3.33052 67.2859 3.33052 67.5138 3.76094C67.6296 3.97299 67.6296 3.97299 67.7477 4.18933C67.9189 4.55493 67.9189 4.55493 67.9189 4.81419C68.0044 4.81419 68.09 4.81419 68.1782 4.81419C68.2047 4.73448 68.2313 4.65478 68.2587 4.57265C68.4047 4.13464 68.5507 3.69663 68.6967 3.25862C68.44 3.19445 68.44 3.19445 68.1782 3.12898C68.1782 3.08621 68.1782 3.04343 68.1782 2.99935C68.7771 2.99935 69.3759 2.99935 69.993 2.99935C69.7363 3.2988 69.4797 3.59825 69.2152 3.90677C69.3395 3.8426 69.3395 3.8426 69.4664 3.77714C70.4038 3.47105 71.1861 3.64311 72.0671 4.0364C72.1099 4.07918 72.1526 4.12196 72.1967 4.16603C72.2395 4.08048 72.2823 3.99492 72.3264 3.90677C72.198 3.8426 72.198 3.8426 72.0671 3.77714C72.4911 3.76962 72.9151 3.76501 73.3391 3.76094C73.4595 3.75876 73.5799 3.75659 73.7039 3.75435C73.8197 3.75352 73.9354 3.75268 74.0546 3.75182C74.1612 3.75046 74.2678 3.74911 74.3776 3.74771C74.6597 3.77714 74.6597 3.77714 75.0486 4.0364C75.1053 4.35238 75.1053 4.35238 75.0486 4.68456C74.8775 4.81289 74.7064 4.94123 74.5301 5.07345C74.8723 5.3729 75.2145 5.67235 75.5671 5.98087C75.5671 5.29642 75.5671 4.61197 75.5671 3.90677C75.4388 3.86399 75.3105 3.82122 75.1782 3.77714C75.7344 3.77714 76.2905 3.77714 76.8635 3.77714C76.7779 3.8627 76.6923 3.94825 76.6042 4.0364C76.5826 4.37131 76.5826 4.37131 76.6042 4.68456C77.1417 4.37652 77.1417 4.37652 77.5116 3.90677C77.3833 3.8426 77.3833 3.8426 77.2523 3.77714C77.7657 3.77714 78.279 3.77714 78.8079 3.77714C78.5474 4.03769 78.3423 4.153 78.0139 4.31187C77.92 4.35766 77.8261 4.40344 77.7293 4.45062C77.6216 4.50225 77.6216 4.50225 77.5116 4.55493C77.6907 4.9711 77.8907 5.20948 78.2408 5.49476C78.3227 5.56227 78.4045 5.62977 78.4889 5.69933C78.5826 5.77453 78.5827 5.77453 78.6783 5.85124C78.7211 5.68013 78.7639 5.50902 78.8079 5.33272C78.9229 5.41827 79.0379 5.50383 79.1563 5.59198C79.5833 5.84976 79.752 5.90794 80.2339 5.85124C80.2339 5.72291 80.2339 5.59457 80.2339 5.46235C80.1527 5.42792 80.0714 5.3935 79.9878 5.35804C79.8818 5.31225 79.7759 5.26646 79.6667 5.21929C79.5615 5.17417 79.4562 5.12905 79.3477 5.08257C79.0672 4.94382 79.0672 4.94382 78.8079 4.68456C78.8322 4.36048 78.8322 4.36048 78.9376 4.0364C79.4084 3.72253 79.6354 3.74989 80.1934 3.76094C80.3463 3.76328 80.4991 3.76562 80.6567 3.76803C80.8324 3.77254 80.8324 3.77254 81.0117 3.77714C81.0117 3.99103 81.0117 4.20492 81.0117 4.4253C80.8994 4.36514 80.8994 4.36514 80.7848 4.30377C80.5082 4.17315 80.2777 4.07682 79.9746 4.0364C79.889 4.12196 79.8035 4.20752 79.7153 4.29567C79.8675 4.35231 79.8675 4.35231 80.0227 4.41011C80.4138 4.56852 80.7794 4.72637 81.1413 4.94382C81.2952 5.37323 81.2952 5.37323 81.2709 5.72161C80.644 6.32239 79.71 6.26587 78.8864 6.2515C77.4575 6.19372 77.4575 6.19372 76.9202 5.64869C76.7252 5.39703 76.7252 5.39703 76.6042 5.20308C76.5717 5.5163 76.5717 5.5163 76.6042 5.85124C76.7325 5.9368 76.8609 6.02236 76.9931 6.1105C76.5745 6.12563 76.156 6.1348 75.7373 6.14291C75.5599 6.14943 75.5599 6.14943 75.379 6.15608C74.4934 6.16896 74.4934 6.16896 74.0075 5.86339C73.8812 5.72904 73.8812 5.72904 73.7523 5.59198C73.6748 5.51712 73.5972 5.44226 73.5173 5.36512C73.4665 5.31165 73.4157 5.25818 73.3634 5.20308C73.4379 5.71263 73.4379 5.71263 73.7523 6.1105C73.1534 6.1105 72.5545 6.1105 71.9375 6.1105C72.0658 6.06773 72.1941 6.02495 72.3264 5.98087C72.2836 5.85254 72.2408 5.7242 72.1967 5.59198C72.1058 5.67754 72.0149 5.76309 71.9213 5.85124C71.2454 6.30395 70.3777 6.20297 69.6041 6.1105C69.2418 5.97906 69.1045 5.8702 68.8263 5.59198C68.7835 5.46364 68.7408 5.33531 68.6967 5.20308C68.6111 5.20308 68.5256 5.20308 68.4374 5.20308C68.3973 5.32875 68.3572 5.45441 68.3159 5.58388C68.1782 5.98087 68.1782 5.98087 68.0485 6.1105C67.7417 6.15304 67.7417 6.15304 67.4004 6.1105C67.1806 5.87352 67.1806 5.87352 66.9953 5.55957C66.7539 5.16028 66.5158 4.80142 66.2337 4.4253C65.7845 5.25947 65.7845 5.25947 65.3263 6.1105C65.0696 6.1105 64.8129 6.1105 64.5485 6.1105C64.375 5.79217 64.2023 5.47346 64.03 5.15447C63.9805 5.0639 63.931 4.97333 63.8801 4.88002C63.5114 4.1954 63.5114 4.1954 63.5114 3.90677C63.4259 3.90677 63.3403 3.90677 63.2522 3.90677C63.2949 4.59123 63.3377 5.27568 63.3818 5.98087C63.5101 6.02365 63.6385 6.06643 63.7707 6.1105C63.1718 6.1105 62.5729 6.1105 61.9559 6.1105C62.0414 6.02495 62.127 5.93939 62.2151 5.85124C62.2466 5.56466 62.2466 5.56466 62.2313 5.2517C62.226 5.06454 62.2206 4.87739 62.2151 4.68456C61.7659 5.3904 61.7659 5.3904 61.3077 6.1105C60.7892 5.98087 60.7892 5.98087 60.5684 5.68465C60.5022 5.56584 60.436 5.44702 60.3679 5.32461C60.2666 5.1459 60.2666 5.1459 60.1633 4.96357C60.1132 4.8715 60.063 4.77942 60.0114 4.68456C60.0009 4.87349 59.9933 5.06258 59.9871 5.2517C59.9826 5.35697 59.9781 5.46225 59.9734 5.57071C59.9859 5.66329 59.9985 5.75586 60.0114 5.85124C60.1397 5.9368 60.2681 6.02236 60.4003 6.1105C59.6303 6.1105 58.8603 6.1105 58.0669 6.1105C58.1952 6.04634 58.1952 6.04634 58.3262 5.98087C58.262 5.7242 58.262 5.7242 58.1965 5.46235C57.8971 5.50513 57.5976 5.5479 57.2891 5.59198C57.225 5.78448 57.225 5.78448 57.1595 5.98087C57.245 6.02365 57.3306 6.06643 57.4188 6.1105C56.8262 6.12984 56.2337 6.1439 55.6409 6.15323C55.4396 6.15712 55.2383 6.16242 55.0371 6.16918C53.1479 6.23104 53.1479 6.23104 52.55 5.71857C52.4455 5.59124 52.3411 5.46391 52.2335 5.33272C52.2335 5.54661 52.2335 5.7605 52.2335 5.98087C52.3618 6.02365 52.4902 6.06643 52.6224 6.1105C52.0235 6.1105 51.4246 6.1105 50.8076 6.1105C50.9359 6.06773 51.0642 6.02495 51.1965 5.98087C51.1323 5.5317 51.1323 5.5317 51.0668 5.07345C50.9652 5.17238 50.8636 5.2713 50.7589 5.37323C49.7835 6.17555 48.5608 6.16335 47.3561 6.13481C47.2136 6.13306 47.0711 6.1313 46.9242 6.12949C46.5766 6.12496 46.2291 6.1186 45.8816 6.1105C45.9244 6.02495 45.9671 5.93939 46.0112 5.85124C46.1395 5.85124 46.2679 5.85124 46.4001 5.85124C46.4001 4.99568 46.4001 4.14011 46.4001 3.25862C46.229 3.25862 46.0579 3.25862 45.8816 3.25862C45.8816 3.17306 45.8816 3.0875 45.8816 2.99935ZM47.826 3.25862C47.8226 3.64212 47.82 4.02558 47.8179 4.40909C47.8169 4.51821 47.8158 4.62733 47.8146 4.73975C47.8142 4.84419 47.8138 4.94863 47.8134 5.05624C47.8127 5.15263 47.812 5.24903 47.8113 5.34835C47.8108 5.60382 47.8108 5.60382 47.9557 5.85124C48.5578 5.89325 48.9008 5.8363 49.3816 5.46235C49.6834 5.04555 49.6924 4.67052 49.6409 4.16603C49.4642 3.75692 49.341 3.56839 48.9522 3.34774C48.565 3.24868 48.2242 3.25257 47.826 3.25862ZM69.9606 4.10932C69.6499 4.54203 69.6685 4.81082 69.7337 5.33272C69.8571 5.65944 69.8571 5.65944 70.1226 5.85124C70.5115 5.93766 70.5115 5.93766 70.9004 5.85124C71.2627 5.54933 71.2874 5.34832 71.346 4.87901C71.3257 4.42287 71.3257 4.42287 71.0624 4.10932C70.6456 3.81984 70.3774 3.81984 69.9606 4.10932ZM52.2335 4.0364C52.2335 4.33585 52.2335 4.6353 52.2335 4.94382C52.4474 4.85827 52.6613 4.77271 52.8817 4.68456C52.8389 4.47067 52.7961 4.25678 52.752 4.0364C52.5809 4.0364 52.4098 4.0364 52.2335 4.0364ZM55.4743 4.0364C55.4743 4.2503 55.4743 4.46419 55.4743 4.68456C55.6882 4.68456 55.9021 4.68456 56.1224 4.68456C56.208 4.51345 56.2936 4.34233 56.3817 4.16603C56.2358 3.99023 56.2358 3.99023 55.8551 4.0283C55.7294 4.03098 55.6038 4.03365 55.4743 4.0364ZM73.3634 4.0364C73.3634 4.33585 73.3634 4.6353 73.3634 4.94382C73.5773 4.85827 73.7912 4.77271 74.0116 4.68456C74.0116 4.51345 74.0116 4.34233 74.0116 4.16603C73.7977 4.12326 73.5838 4.08048 73.3634 4.0364ZM57.5484 4.68456C57.5056 4.85567 57.4628 5.02679 57.4188 5.20308C57.5899 5.20308 57.761 5.20308 57.9373 5.20308C57.8945 5.03197 57.8517 4.86086 57.8076 4.68456C57.7221 4.68456 57.6365 4.68456 57.5484 4.68456ZM81.8624 5.32461C82.0188 5.32863 82.0188 5.32862 82.1783 5.33272C82.2594 5.64059 82.2594 5.64059 82.308 5.98087C82.2224 6.06643 82.1369 6.15199 82.0487 6.24014C81.7732 6.19152 81.7732 6.19152 81.5302 6.1105C81.4806 5.89582 81.4376 5.67954 81.4005 5.46235C81.5302 5.33272 81.5302 5.33272 81.8624 5.32461ZM40.5667 5.59198C40.826 5.72161 40.826 5.72161 40.826 5.72161L40.5667 5.59198ZM57.8076 36.0553C58.8028 36.0523 59.798 36.05 60.7932 36.0486C61.2556 36.048 61.7179 36.047 62.1802 36.0456C68.7911 36.0249 68.7911 36.0249 70.4837 37.6818C71.7541 39.0889 72.5172 40.5512 72.5112 42.4539C72.4293 43.1542 72.1458 43.6964 71.6782 44.2221C71.5926 44.2221 71.5071 44.2221 71.4189 44.2221C71.8215 44.8714 72.2933 45.4051 72.8206 45.9559C72.9836 46.1283 73.1465 46.3008 73.3092 46.4734C73.3864 46.5551 73.4635 46.6368 73.543 46.7209C73.8611 47.0605 74.1691 47.4076 74.4698 47.7627C74.6031 47.9162 74.7425 48.0644 74.8861 48.2083C74.9946 48.3206 74.9946 48.3206 75.1053 48.4351C75.1693 48.498 75.2333 48.5608 75.2993 48.6255C75.5221 49.0499 75.4576 49.4517 75.4375 49.9259C75.1904 49.918 74.9433 49.91 74.6962 49.9021C74.5365 49.897 74.3769 49.8919 74.2124 49.8866C73.8602 49.8752 73.5081 49.8626 73.156 49.8492C72.3146 49.8177 71.4763 49.7929 70.6341 49.7998C68.6978 49.8032 68.6978 49.8032 68.0743 49.4762C67.7913 49.1715 67.6098 48.8601 67.4004 48.4999C67.1824 48.2059 66.9573 47.9181 66.7315 47.63C66.387 47.1898 66.0512 46.743 65.7152 46.2962C65.6956 47.3891 65.7759 48.4345 65.8448 49.537C63.4492 49.537 61.0536 49.537 58.5854 49.537C58.4978 48.836 58.4364 48.1825 58.4354 47.4828C58.4344 47.339 58.4344 47.339 58.4334 47.1924C58.432 46.986 58.4309 46.7796 58.43 46.5732C58.4284 46.2448 58.4259 45.9164 58.4231 45.588C58.3961 42.4164 58.5822 39.1552 57.8076 36.0553ZM64.8077 39.8146C64.8505 40.1996 64.8933 40.5847 64.9374 40.9813C65.3154 41.0138 65.3154 41.0138 65.7152 40.9813C66.001 40.6393 66.0936 40.1434 65.7152 39.8146C65.4127 39.8093 65.1102 39.8091 64.8077 39.8146ZM52.6867 36.1467C52.9538 36.1452 53.2209 36.1425 53.4879 36.1387C53.8802 36.1332 54.2723 36.1311 54.6646 36.1298C54.7828 36.1275 54.9009 36.1252 55.0227 36.1229C55.7919 36.1255 56.3935 36.2528 57.0299 36.7035C57.8707 37.7384 57.7039 39.0733 57.7105 40.3246C57.7192 42.0135 57.7164 43.7029 57.7368 45.3916C57.7515 46.6846 57.7307 47.7592 56.8111 48.743C55.7563 49.4197 54.5972 49.5515 53.3713 49.6064C50.8015 49.7276 48.23 49.8266 45.6572 49.8492C45.408 49.8517 45.1588 49.8553 44.9096 49.86C44.562 49.8661 44.2148 49.868 43.8672 49.8687C43.7141 49.8724 43.7141 49.8725 43.5579 49.8763C43.031 49.872 42.8004 49.8206 42.3859 49.4839C41.7846 48.7181 41.8769 47.7544 41.9404 46.819C42.1224 45.4486 42.6905 44.1291 43.1593 42.8367C43.2721 42.517 43.3845 42.1973 43.4966 41.8774C43.769 41.1019 44.0458 40.3281 44.326 39.5554C44.0185 39.932 43.7289 40.3067 43.4712 40.719C43.1345 41.2554 42.7989 41.7925 42.4631 42.3294C42.1349 42.8533 41.8045 43.3756 41.4741 43.898C40.8972 44.8113 40.3265 45.7286 39.7415 46.6367C39.1407 47.5729 38.5739 48.5441 38.063 49.5328C37.7551 50.0572 37.527 50.3787 36.9365 50.5716C36.518 50.631 36.105 50.6667 35.6829 50.6866C35.2351 50.712 34.7904 50.7616 34.3444 50.8087C33.8501 50.8602 33.3552 50.906 32.8603 50.9519C32.4752 50.9878 32.0902 51.0248 31.7052 51.0619C31.4604 51.0849 31.2157 51.1077 30.9709 51.1305C30.8558 51.1417 30.7406 51.1529 30.622 51.1645C30.3508 51.1891 30.0791 51.2064 29.8073 51.2222C29.5985 51.0134 29.6404 50.7992 29.629 50.5092C29.6319 49.447 29.9979 48.462 30.3258 47.4629C29.5755 48.2614 28.8301 49.0594 28.1383 49.9097C28.0439 50.0243 27.9495 50.139 27.8522 50.2571C27.6055 50.5597 27.6055 50.5597 27.4319 50.8505C27.1446 51.2837 26.9241 51.4551 26.4129 51.5923C24.005 52.0055 21.5036 52.5619 19.0479 52.5185C18.6876 51.2564 19.2717 50.3264 19.85 49.2453C20.227 48.5195 20.606 47.7949 20.9924 47.074C21.5722 45.987 22.1664 44.9079 22.7654 43.8313C24.1548 41.3557 24.1548 41.3557 25.1419 38.7019C25.3998 38.2591 25.3998 38.2591 25.6332 38.1544C25.944 38.0907 26.2478 38.0557 26.564 38.0287C27.2932 37.9456 28.0239 37.8786 28.7533 37.797C29.7567 37.6882 30.7416 37.5952 31.7518 37.6109C32.0417 38.1737 32.0063 38.5535 31.8814 39.1665C31.8172 39.359 31.8172 39.359 31.7518 39.5554C32.0059 39.2612 32.2597 38.9668 32.5133 38.6723C32.7162 38.4376 32.9264 38.1933 33.1351 37.9513C33.3315 37.718 33.3315 37.718 33.5666 37.3517C33.8771 37.2718 33.8771 37.2718 34.2644 37.2286C34.7017 37.178 35.1396 37.1328 35.5769 37.082C36.3373 36.9973 37.0795 36.9431 37.8444 36.9628C38.2377 37.7336 38.1037 38.3558 38.1037 39.1665C38.1481 39.0965 38.1925 39.0265 38.2383 38.9544C38.642 38.3218 39.0516 37.6931 39.4576 37.062C39.9896 36.4582 41.184 36.6176 41.9278 36.5658C42.0856 36.554 42.2433 36.5422 42.4058 36.5301C43.3935 36.4599 44.373 36.4288 45.363 36.4442C45.4058 36.7437 45.4486 37.0431 45.4927 37.3517C45.613 37.2527 45.7333 37.1538 45.8573 37.0519C47.6654 35.783 50.5742 36.155 52.6867 36.1467ZM51.4557 39.4258C51.0583 39.5809 51.0583 39.5809 50.8183 39.919C50.7796 40.0661 50.7796 40.0661 50.7402 40.2162C50.7094 40.3324 50.6785 40.4485 50.6467 40.5682C50.4675 41.3207 50.2945 42.074 50.1313 42.8301C50.0697 43.1149 50.0071 43.3995 49.9444 43.6841C49.9048 43.8659 49.8652 44.0478 49.8257 44.2297C49.7902 44.3932 49.7546 44.5567 49.718 44.7252C49.6287 45.1246 49.6287 45.1246 49.6409 45.5184C49.9486 45.5618 49.9486 45.5618 50.289 45.5184C50.775 45.064 50.8147 44.4545 50.919 43.8287C50.9389 43.7152 50.9588 43.6018 50.9793 43.4849C51.0209 43.2456 51.0618 43.0063 51.1021 42.7668C51.164 42.3997 51.2284 42.0332 51.2932 41.6667C51.3333 41.4341 51.3733 41.2014 51.4132 40.9687C51.4325 40.8589 51.4518 40.7491 51.4717 40.636C51.5759 40.0255 51.5759 40.0255 51.4557 39.4258ZM71.1597 36.3146C72.362 36.3052 73.5628 36.3161 74.7641 36.3684C74.9556 36.3758 75.1471 36.3813 75.3387 36.3849C76.9213 36.4161 76.9213 36.4161 77.3711 36.7684C77.5476 37.0418 77.6573 37.3062 77.7709 37.6109C77.8839 37.8299 77.9988 38.048 78.1152 38.2651C78.2388 38.5112 78.3616 38.7577 78.4838 39.0045C78.5502 39.1378 78.6166 39.2711 78.6849 39.4084C79.4225 40.9005 80.1215 42.4103 80.8145 43.9235C80.9532 44.2247 81.0928 44.5251 81.2341 44.825C81.3054 44.9771 81.3767 45.1293 81.4502 45.286C81.5152 45.4238 81.5802 45.5617 81.6472 45.7037C81.7894 46.0369 81.7894 46.0369 81.7894 46.2962C82.1945 46.3039 82.5996 46.3084 83.0047 46.3124C83.1739 46.3157 83.1739 46.3157 83.3465 46.319C84.1536 46.325 84.8937 46.2243 85.6784 46.0369C85.7327 46.1423 85.787 46.2476 85.8429 46.3562C86.044 46.746 86.2452 47.1356 86.4466 47.5252C86.5339 47.694 86.621 47.8629 86.7081 48.0318C86.833 48.2742 86.9582 48.5165 87.0836 48.7587C87.1589 48.9047 87.2343 49.0506 87.3119 49.201C87.4627 49.5189 87.4627 49.5189 87.6228 49.6666C87.6322 49.8636 87.6337 50.0609 87.631 50.2581C87.6298 50.3652 87.6286 50.4723 87.6274 50.5827C87.6259 50.6654 87.6244 50.7481 87.6228 50.8333C84.0683 50.671 80.5295 50.2902 76.9778 50.0874C76.628 50.0575 76.2992 49.9976 75.956 49.9259C75.9181 49.8003 75.9181 49.8003 75.8794 49.6721C75.6358 48.8661 75.3919 48.0602 75.1478 47.2543C75.0224 46.8404 74.8971 46.4265 74.7721 46.0126C74.2544 44.2996 73.7334 42.5877 73.1953 40.8811C73.155 40.7513 73.1146 40.6215 73.0731 40.4878C72.6699 39.2202 72.1357 38.0275 71.3886 36.9238C71.1597 36.5739 71.1597 36.5739 71.1597 36.3146ZM80.882 36.9628C81.9849 36.9411 83.0603 37.0034 84.1567 37.1192C84.3959 37.1437 84.3959 37.1437 84.6399 37.1687C84.9754 37.2033 85.3108 37.2383 85.6462 37.2737C86.1526 37.327 86.6592 37.3785 87.1658 37.4299C91.1115 37.8366 94.382 38.2989 97.013 41.5323C97.1051 41.6492 97.1972 41.7662 97.292 41.8867C97.6644 42.3527 98.0544 42.801 98.4471 43.2499C99.0332 43.922 99.6064 44.6021 100.168 45.2951C100.486 45.6843 100.811 46.0674 101.137 46.4501C101.69 47.1023 102.239 47.7582 102.782 48.4189C102.852 48.5037 102.923 48.5884 102.995 48.6758C103.629 49.4506 104.136 50.1433 104.224 51.1736C104.239 51.3143 104.254 51.455 104.269 51.6C104.196 52.1467 103.99 52.3039 103.567 52.6481C101.977 52.9751 100.076 52.4633 98.4957 52.2349C95.6251 51.8276 92.7308 51.4652 89.8395 51.2416C89.3427 51.1893 89.0711 51.1104 88.6773 50.7958C88.429 50.4804 88.2347 50.1921 88.0563 49.8337C87.9969 49.7167 87.9375 49.5997 87.8764 49.4791C87.8141 49.3538 87.7518 49.2285 87.6877 49.0995C86.9576 47.666 86.1781 46.267 85.3804 44.8703C85.1498 44.4636 84.9222 44.0553 84.6955 43.6464C83.2419 40.9374 83.2419 40.9374 81.4573 38.4454C81.0345 37.9427 80.882 37.6196 80.882 36.9628ZM89.8266 41.2406C90.028 41.8505 90.3665 42.2997 90.7502 42.8043C91.1915 43.395 91.6238 43.9873 92.0303 44.6029C92.1114 44.7251 92.1924 44.8472 92.2759 44.9731C92.4253 45.2006 92.5742 45.4284 92.7212 45.6575C92.9075 45.9474 93.0967 46.2352 93.2861 46.5231C93.374 46.6624 93.374 46.6624 93.4636 46.8046C93.549 46.9329 93.549 46.9329 93.636 47.0639C93.6858 47.1409 93.7355 47.2179 93.7868 47.2972C93.9764 47.498 93.9764 47.498 94.32 47.4878C94.42 47.4796 94.52 47.4714 94.6229 47.4629C93.6806 45.9573 92.6649 44.5065 91.6414 43.0554C91.576 42.9619 91.5105 42.8684 91.4431 42.772C91.2868 42.5493 91.128 42.3283 90.969 42.1075C90.8869 41.993 90.8049 41.8786 90.7203 41.7606C90.4425 41.4656 90.2101 41.3605 89.8266 41.2406ZM104.864 52C105.12 52 105.377 52 105.642 52C105.642 52.0855 105.642 52.1711 105.642 52.2593C105.556 52.2593 105.47 52.2593 105.382 52.2593C105.382 52.5159 105.382 52.7726 105.382 53.037C105.297 53.037 105.211 53.037 105.123 53.037C105.123 52.7804 105.123 52.5237 105.123 52.2593C105.038 52.2593 104.952 52.2593 104.864 52.2593C104.864 52.1737 104.864 52.0881 104.864 52ZM105.771 52C105.857 52 105.942 52 106.03 52C106.116 52.2139 106.202 52.4278 106.29 52.6481C106.375 52.4343 106.461 52.2204 106.549 52C106.635 52 106.72 52 106.808 52C106.808 52.3422 106.808 52.6844 106.808 53.037C106.723 52.9943 106.637 52.9515 106.549 52.9074C106.506 52.9502 106.463 52.993 106.419 53.037C106.152 52.9803 106.152 52.9803 105.901 52.9074C105.858 52.993 105.815 53.0785 105.771 53.1667C105.771 52.7817 105.771 52.3967 105.771 52Z" fill="#54504A"/>
</svg>
