<svg width="60" height="46" viewBox="0 0 60 46" fill="none" xmlns="http://www.w3.org/2000/svg">
<g clip-path="url(#clip0_67_2183)">
<path d="M19.0933 24.3488V40.2595L21.7765 38.2371V27.0595L19.0933 24.3488Z" fill="#54504A"/>
<path d="M24.8579 28.0642L28.3519 27.2662L29.7631 26.1095V24.012L24.8579 28.0642Z" fill="#54504A"/>
<path d="M24.4192 2.76176L19.4829 0.486719L23.9451 5.48706L25.6345 3.81967L24.4192 2.76176Z" fill="#54504A"/>
<path d="M0 41.431H1.55025L2.05541 43.9605H2.06456L2.56972 41.431H4.11997V45.7322H3.08952V42.9721H3.07854L2.4654 45.7322H1.65458L1.0396 42.9721H1.03045V45.7322H0V41.431Z" fill="#54504A"/>
<path d="M7.72655 44.0681C7.72655 45.2615 7.19577 45.8325 6.11773 45.8325C5.03969 45.8325 4.50342 45.2615 4.50342 44.0681V41.4307H5.59244V43.7753C5.59244 44.2145 5.59244 44.7618 6.12139 44.7618C6.63936 44.7618 6.63936 44.2145 6.63936 43.7753V41.4307H7.72655V44.0681Z" fill="#54504A"/>
<path d="M9.1315 44.2848C9.1315 44.3928 9.14614 44.4898 9.17177 44.5685C9.25047 44.8266 9.48841 44.8815 9.69157 44.8815C9.86911 44.8815 10.1418 44.8101 10.1418 44.4898C10.1418 44.2684 9.98991 44.208 9.37859 43.9975C8.82035 43.8035 8.17975 43.6168 8.17975 42.7492C8.17975 41.7572 8.88075 41.3289 9.60738 41.3289C10.3743 41.3289 11.0533 41.684 11.0826 42.7327H10.054C10.0723 42.5699 10.0137 42.4619 9.92401 42.3868C9.83433 42.3118 9.70987 42.2807 9.60188 42.2807C9.45363 42.2807 9.2102 42.3283 9.2102 42.5699C9.23034 42.8755 9.7355 42.9414 10.2352 43.1116C10.7367 43.28 11.2308 43.5637 11.2308 44.3507C11.2308 45.4727 10.3852 45.8333 9.59822 45.8333C9.19556 45.8333 8.05163 45.6575 8.04248 44.2848H9.1315Z" fill="#54504A"/>
<path d="M11.5811 41.4316H12.6701V45.7328H11.5811V41.4316Z" fill="#54504A"/>
<path d="M15.422 43.0329C15.4019 42.8755 15.303 42.3996 14.8509 42.3996C14.3421 42.3996 14.1792 43.0036 14.1792 43.582C14.1792 44.1585 14.3421 44.7625 14.8509 44.7625C15.2188 44.7625 15.3634 44.4477 15.4275 44.0451H16.4964C16.4964 44.9126 15.918 45.8333 14.8821 45.8333C13.7381 45.8333 13.0884 44.8522 13.0884 43.582C13.0884 42.2276 13.793 41.3289 14.8821 41.3289C15.8539 41.3344 16.3866 41.9549 16.4817 43.0329H15.422Z" fill="#54504A"/>
<path d="M19.3208 42.5326H18.3306V41.4308H21.4V42.5326H20.4098V45.7319H19.3208V42.5326Z" fill="#54504A"/>
<path d="M21.7168 41.431H24.6416V42.5328H22.8058V43.0709H24.4732V44.0922H22.8058V44.6303H24.6983V45.7322H21.7168V41.431Z" fill="#54504A"/>
<path d="M25.0312 41.431H26.1184V44.6303H27.6852V45.7322H25.0312V41.431Z" fill="#54504A"/>
<path d="M27.9556 41.431H30.8804V42.5328H29.0446V43.0709H30.7138V44.0922H29.0446V44.6303H30.9353V45.7322H27.9556V41.431Z" fill="#54504A"/>
<path d="M33.4973 45.7317H32.2802L31.2241 41.4305H32.3241L32.9043 44.0387H32.9116L33.4845 41.4305H34.601L33.4973 45.7317Z" fill="#54504A"/>
<path d="M35.0103 41.4316H36.1011V45.7328H35.0103V41.4316Z" fill="#54504A"/>
<path d="M37.6144 44.2848C37.6144 44.3928 37.6291 44.4898 37.6547 44.5685C37.7334 44.8266 37.9713 44.8815 38.1745 44.8815C38.352 44.8815 38.6247 44.8101 38.6247 44.4898C38.6247 44.2684 38.4692 44.208 37.8615 43.9975C37.3033 43.8035 36.6627 43.6168 36.6627 42.7492C36.6627 41.7572 37.3618 41.3289 38.0903 41.3289C38.8572 41.3289 39.5344 41.684 39.5637 42.7327H38.535C38.5552 42.5699 38.4948 42.4619 38.4051 42.3868C38.3172 42.3118 38.1928 42.2807 38.0848 42.2807C37.9365 42.2807 37.6931 42.3283 37.6931 42.5699C37.7132 42.8755 38.2184 42.9414 38.7181 43.1116C39.2196 43.28 39.7137 43.5637 39.7137 44.3507C39.7137 45.4727 38.8663 45.8333 38.0811 45.8333C37.6785 45.8333 36.5345 45.6575 36.5254 44.2848H37.6144Z" fill="#54504A"/>
<path d="M40.0635 41.4316H41.1525V45.7328H40.0635V41.4316Z" fill="#54504A"/>
<path d="M43.3148 41.3289C44.391 41.3289 45.1085 42.2697 45.1085 43.582C45.1085 44.8943 44.391 45.8333 43.3148 45.8333C42.2423 45.8333 41.5229 44.8943 41.5229 43.582C41.5229 42.2697 42.2423 41.3289 43.3148 41.3289ZM43.3148 44.7625C43.593 44.7625 44.0195 44.5392 44.0195 43.582C44.0195 42.6248 43.593 42.3996 43.3148 42.3996C43.0384 42.3996 42.612 42.6248 42.612 43.582C42.612 44.5392 43.0384 44.7625 43.3148 44.7625Z" fill="#54504A"/>
<path d="M45.5132 41.431H46.6278L47.6564 43.7317H47.6674V41.431H48.6961V45.7322H47.6381L46.5528 43.3839H46.5436V45.7322H45.5132V41.431Z" fill="#54504A"/>
<path fill-rule="evenodd" clip-rule="evenodd" d="M50.3143 42.9295H50.0801V41.835H50.49C50.7701 41.835 50.9385 41.9137 50.9385 42.1663C50.9385 42.3676 50.8195 42.439 50.6749 42.45L50.9531 42.9295H50.6767L50.4242 42.4683H50.3143V42.9295ZM50.5212 42.2834C50.6255 42.2834 50.6895 42.2615 50.6895 42.1407C50.6895 42.029 50.5669 42.0199 50.4772 42.0199H50.3143V42.2834H50.5212ZM50.4827 43.3999C49.9428 43.3999 49.4614 43.0265 49.4614 42.3841C49.4614 41.7417 49.9428 41.3665 50.4827 41.3665C51.0208 41.3665 51.5022 41.7417 51.5022 42.3841C51.5022 43.0265 51.0208 43.3999 50.4827 43.3999ZM50.4827 41.6044C50.0801 41.6044 49.7543 41.9137 49.7543 42.3841C49.7543 42.8526 50.0801 43.1656 50.4827 43.1638C50.8762 43.1638 51.2093 42.8526 51.2093 42.3841C51.2093 41.9137 50.8762 41.6044 50.4827 41.6044Z" fill="#54504A"/>
<path d="M58.536 5.32984C58.0857 5.02235 57.2786 4.8686 56.4806 4.93816C55.721 5.00222 55.2158 5.37376 54.8004 5.71786C54.8059 5.7142 53.7187 6.79041 53.7187 6.79041L53.4276 7.2553C53.424 7.26079 52.4576 8.46878 52.4576 8.46878L52.4466 8.48159V1.78274L49.4815 4.19617e-05L49.4834 12.1678L49.4449 12.2264L48.7348 13.061V4.19617e-05H30.4063L23.8868 6.48658L18.0958 4.19617e-05H0.0180664V40.2151H18.4033V22.4998L23.8154 28.0821L30.4612 22.4174V40.2151H48.7385L48.7366 23.2447C48.8794 23.0012 48.9965 22.8072 48.9965 22.8072C48.9984 22.8017 49.1521 22.5803 49.1521 22.5803C49.1613 22.5693 49.3168 22.3204 49.487 22.0495L49.4889 40.2151L52.4466 38.1725V16.7453C52.5766 16.5513 52.7706 16.2621 52.7706 16.2621C52.798 16.2164 53.2263 15.5758 53.2263 15.5758L53.9072 14.5746C53.9145 14.5581 54.1671 14.2378 54.1671 14.2378L54.7967 13.3465C54.9212 13.0591 55.2762 12.8688 55.4117 12.7974L55.4757 12.7626L55.5618 12.7004L55.8894 12.3691C55.8949 12.3618 56.4586 11.8859 56.4586 11.8859L57.4213 11.4375L58.32 10.9433C58.3237 10.9415 59.1436 9.93118 59.1436 9.93118L59.5811 8.5731L59.7092 7.25713C59.6817 6.58907 59.1766 5.76178 58.536 5.32984ZM36.5121 16.2676C36.5323 16.3957 36.6018 17.5854 36.5982 17.7813C36.5945 18.3706 36.6348 19.0204 36.6165 19.2821C36.6018 19.4816 36.6293 20.1698 36.6293 20.1698C36.6787 20.7134 36.7958 21.3082 36.8068 21.4144C36.8306 21.6926 36.7263 22.7487 36.7574 22.9884C36.7611 23.0379 36.8471 23.479 36.8288 23.5833C36.7812 23.8578 36.8617 24.1891 36.8526 24.3136C36.8379 24.5314 36.8288 24.7803 36.8215 25.0457C36.8068 25.4392 36.794 25.8455 36.7574 26.2006C36.7464 26.2903 36.7592 26.9107 36.7592 26.9107C36.6879 27.5349 36.611 28.1791 36.7171 28.8252C36.7373 28.9552 36.7116 29.3816 36.7226 29.4567C36.7391 29.5537 36.8764 30.0552 36.8965 30.165C36.9258 30.3297 36.988 31.0929 37.0704 31.2687C37.1509 31.4462 37.4785 32.2241 37.5078 32.3174C37.6048 32.6121 37.7531 33.3222 37.6195 33.6846C37.4932 34.0269 37.3028 34.8414 37.1692 35.0445C37.0539 35.2221 36.88 35.3264 36.7977 35.4545C36.719 35.5735 36.5634 35.6833 36.4334 35.7345C36.0308 35.892 35.317 36.0018 34.6983 35.8133C34.4476 35.7382 34.0687 35.762 33.6423 35.5039C33.2945 35.2934 33.1755 34.7169 33.1261 34.4076C33.1023 34.263 33.1444 33.8768 33.1353 33.8164C33.1243 33.7286 32.9925 33.1575 32.9925 32.9745C32.9907 32.883 33.0236 32.4968 32.9815 32.2424C32.9284 31.9147 32.7692 31.3821 32.7692 31.3821C32.7253 31.1643 32.6081 30.6921 32.6027 30.6775C32.4764 30.3242 32.4141 29.9801 32.3775 29.6873C32.3098 29.1492 32.4434 28.7008 32.5624 28.3036C32.6301 28.0748 32.6942 27.8607 32.7216 27.6447C32.7399 27.4891 32.6191 26.7515 32.6429 26.5044C32.6502 26.4038 32.7326 26.0835 32.7363 26.0414C32.7674 25.8327 32.7747 25.2763 32.7765 25.1903C32.7784 25.0786 32.8534 24.6101 32.8442 24.125C32.8406 23.9347 32.8205 23.737 32.8442 23.5375C32.868 23.3252 32.8863 22.7834 32.8461 22.5327C32.782 22.1502 32.8076 21.8079 32.8058 21.7914C32.7784 21.3906 32.7546 20.9696 32.7784 20.6109C32.782 20.5542 32.7125 19.9465 32.7106 19.758C32.707 19.639 32.6997 18.8941 32.6923 18.8062C32.5331 16.9522 32.2823 16.5971 32.1817 16.5294C32.081 16.4635 31.8083 16.4671 31.6527 16.5403C31.5338 16.5952 31.2244 16.8643 30.9627 17.0052C30.7065 17.1407 30.2288 17.3676 30.0659 17.4884C29.8774 17.6312 29.568 17.871 28.9659 18.2004C28.814 18.2828 28.6986 18.4237 28.5614 18.5482C28.3619 18.7239 27.9885 19.1009 27.3845 19.4066C27.088 19.5548 26.8244 19.7287 26.6121 19.9355C26.5243 20.0234 26.2003 20.5651 25.9917 20.7683C25.7885 20.9623 25.6604 21.235 25.6238 21.3192C25.5176 21.5462 25.4023 21.8006 25.179 21.9671C24.8331 22.2252 24.079 22.2728 23.6233 22.0824C23.3323 21.9616 22.7521 21.5718 22.4995 20.8964C22.2451 20.2229 22.4574 19.359 22.9607 18.7989C23.292 18.431 23.8081 18.2828 24.3096 18.1418C24.6189 18.054 24.9136 17.9698 25.1406 17.8435C25.2522 17.7813 25.6091 17.5141 25.6842 17.4646C25.7976 17.3896 26.2021 17.1938 26.2808 17.1425C26.3541 17.0931 26.7805 16.7215 27.066 16.5605C27.5382 16.2969 27.9135 16.0846 28.1349 15.9455C28.1349 15.9455 28.7847 15.5794 29.2056 15.1804C29.3008 15.0889 29.7053 14.9388 30.1482 14.6881C30.2599 14.624 30.7229 14.4685 30.8401 14.4172C30.9206 14.3788 31.2427 14.1427 31.3379 14.0932C31.7534 13.8773 31.962 13.6192 31.8449 12.9768C31.8028 12.7535 31.7351 12.5265 31.7589 12.2575C31.7662 12.1916 31.8614 11.7871 32.0151 11.5089C32.092 11.3661 32.2128 11.3698 32.2805 11.238C32.3482 11.1026 32.5862 10.9891 32.7436 10.9488C32.8534 10.8427 33.0804 10.7292 33.3457 10.6834C33.9278 10.5864 34.6764 11.0129 34.7844 11.0348C34.9893 11.0806 35.3371 11.0495 35.5201 10.9964C35.5567 10.9891 35.7947 10.8335 35.8825 10.8006C35.9997 10.7566 36.3749 10.6541 36.4517 10.6267C36.5671 10.5864 37.1015 10.3064 37.2369 10.2551C37.376 10.2021 37.6982 10.1435 37.8574 10.1069C38.1118 9.92569 38.5895 9.77011 38.7725 9.61271C38.9794 9.43151 39.2594 8.99773 39.318 8.92086C39.426 8.7781 39.9531 8.42302 40.0281 8.36628C40.2002 8.23084 40.5937 7.95447 40.8609 7.87759C40.989 7.84099 41.3642 7.91786 41.593 7.91603C41.8493 7.91603 42.208 7.93068 42.4789 8.34066C42.6143 8.54748 42.8413 8.75796 42.8998 9.04349C43.0756 9.93484 42.4093 10.8189 41.9042 11.1337C41.8529 11.1648 41.6077 11.2362 41.4576 11.2856C41.2471 11.3551 41.033 11.5089 40.8902 11.5473C40.6065 11.6224 40.4674 11.82 40.3503 11.8823C40.2349 11.9427 39.8433 12.1843 39.717 12.2538C39.62 12.3051 39.4607 12.532 39.1734 12.6162C38.9794 12.6748 38.5749 12.7901 38.2527 13.0738C38.1191 13.1909 37.5755 13.3026 37.42 13.3373C37.3614 13.352 36.6677 13.6448 36.5982 14.0511C36.525 14.4776 36.5854 14.5911 36.5048 15.2024C36.4554 15.5831 36.481 16.0315 36.5121 16.2676ZM59.1107 8.47427C59.0576 8.72319 58.9185 9.33816 58.7208 9.69873C58.6348 9.85796 58.2925 10.3631 58.0326 10.5571C57.7801 10.7438 57.414 10.9287 57.2603 10.9836C57.1175 11.0348 56.4183 11.3606 56.2298 11.4613C55.8912 11.6443 55.71 11.8493 55.5325 12.0452C55.441 12.1477 55.3513 12.2428 55.2433 12.338C55.2012 12.3746 54.5807 12.629 54.3556 13.1543C54.2183 13.4728 53.5997 14.1335 53.4954 14.3239C53.3416 14.5984 53.1147 15.012 52.8877 15.2335C52.82 15.2994 52.7468 15.4001 52.6699 15.5172C52.5985 15.6234 52.5253 15.7423 52.4466 15.8723C52.4247 15.9071 52.4063 15.9363 52.3844 15.9711C52.238 16.2127 52.0732 16.4873 51.9781 16.5879C51.742 16.8423 51.6047 17.1718 51.493 17.4408C51.4491 17.5452 51.0611 18.0997 50.9147 18.4859C50.8506 18.6598 50.5138 19.2235 50.4772 19.3096C50.4058 19.4908 49.9721 19.9117 49.93 19.9941C49.8677 20.1204 49.811 20.2924 49.7524 20.4718C49.7012 20.6347 49.5676 20.955 49.5218 21.0794C49.4651 21.1728 49.3919 21.2918 49.315 21.4181C49.3113 21.4235 49.3095 21.4272 49.3058 21.4309C49.2491 21.5242 49.1924 21.6176 49.132 21.7146C48.9965 21.9342 48.8593 22.1502 48.7696 22.2893C48.7092 22.3661 48.6488 22.4558 48.5957 22.5364C48.5097 22.6626 47.88 23.737 47.7355 23.9933C47.6714 24.1104 47.5927 24.2275 47.5122 24.3502C47.32 24.6375 47.1223 24.9322 47.0271 25.2964C46.9667 25.5234 46.7929 25.8986 46.78 25.9315C46.533 26.5392 46.4378 27.1926 46.4122 27.3775C46.3737 27.6795 46.3829 27.9851 46.3957 28.278C46.4085 28.5946 46.4195 28.8948 46.3682 29.1602C46.2731 29.6525 46.0809 30.1375 45.8265 30.5256C45.7587 30.6317 45.519 30.9593 45.2353 31.2229C45.0285 31.4151 44.6899 31.4938 44.0694 31.4993C43.2293 31.5029 42.8687 31.1918 42.4221 30.5347C42.3489 30.4285 42.2062 30.1522 42.0323 29.7806C41.809 29.3066 41.626 28.8728 41.4667 28.3018C41.4173 28.1297 41.3478 27.9394 41.2837 27.7545C41.2105 27.5532 41.0531 26.9858 41.0403 26.8924C41.0256 26.7991 40.828 26.1384 40.8151 26.0743C40.7383 25.6698 40.6321 25.2946 40.5278 24.9322C40.4216 24.5588 40.321 24.2056 40.2587 23.8414C40.1983 23.4918 40.0117 22.9262 39.8744 22.5162C39.8744 22.5162 39.6108 21.6798 39.5266 21.3814C39.4113 20.977 39.0343 19.8605 39.0343 19.8605C38.8933 19.4798 38.5602 18.5866 38.5364 18.4438C38.3388 17.2834 38.3406 16.3482 38.5493 15.94C38.6426 15.7533 38.9629 15.5758 39.221 15.433C39.307 15.3836 39.7316 15.1091 39.8231 15.0853C40.0867 15.0139 40.5278 14.9919 40.8993 15.0304C40.9488 15.0358 41.4045 15.0395 41.5692 15.1566C42.1824 15.5831 42.2263 16.134 42.3068 17.1352C42.3068 17.1352 42.413 18.2114 42.4642 18.6159C42.5008 18.9142 42.5411 19.2235 42.5722 19.5292C42.5924 19.7397 42.6033 19.9703 42.6125 20.1918C42.629 20.5926 42.7662 21.3577 42.7662 21.3577C42.9035 21.8171 43.0353 22.2545 43.5734 22.4814C43.7198 22.5418 43.8864 22.5309 44.0438 22.443C44.4117 22.2472 44.7466 21.6505 44.8747 20.9623C44.882 20.9239 44.9369 20.8452 44.99 20.7683C45.1181 20.5908 45.292 20.3455 45.3817 19.9428C45.4092 19.8422 45.6562 19.5017 45.8027 19.2986C45.9528 19.0918 46.0919 18.8977 46.1742 18.7513C46.2017 18.7019 46.813 17.7483 46.813 17.7483C46.813 17.7483 47.0491 17.223 47.1498 17.0272C47.2504 16.8277 47.3383 16.5898 47.3474 16.5495C47.3969 16.3445 47.4975 15.9144 47.6989 15.6764C47.9734 15.3525 48.2717 14.624 48.2864 14.5929C48.3523 14.4685 48.5316 14.1591 48.6982 13.8864C48.7073 13.8754 48.7238 13.8516 48.7348 13.837V13.8352C48.7385 13.8315 48.7439 13.8242 48.7476 13.8205C48.8208 13.7235 48.916 13.5954 48.9892 13.5076L49.5163 12.8834C49.6243 12.7663 49.7323 12.6455 49.8293 12.5137C49.9318 12.3783 50.1496 12.058 50.3418 11.7743C50.4589 11.5967 50.7975 11.1556 50.9019 11.0458C51.0043 10.9397 51.7731 9.90555 51.892 9.74815C51.9415 9.68409 52.2563 9.36379 52.4466 9.17161L52.4484 9.16795C52.712 8.90256 52.809 8.80555 52.8438 8.75979C52.9975 8.55297 53.1641 8.35164 53.3251 8.1558C53.4862 7.95996 53.6509 7.76046 53.8083 7.54997C53.8779 7.46212 54.0554 7.14365 54.103 7.08142C54.2696 6.86179 55.0841 6.10954 55.1078 6.08941C55.4867 5.77643 55.9059 5.47077 56.5208 5.41769C57.1944 5.35912 57.9118 5.48724 58.2669 5.72884C58.7757 6.0711 59.2059 6.76661 59.2278 7.27726C59.2498 7.76778 59.2132 7.96728 59.1107 8.47427Z" fill="#54504A"/>
</g>
<defs>
<clipPath id="clip0_67_2183">
<rect width="59.7095" height="45.8333" fill="white"/>
</clipPath>
</defs>
</svg>
