<svg width="147" height="34" viewBox="0 0 147 34" fill="none" xmlns="http://www.w3.org/2000/svg">
<path d="M60.3892 6.81396C59.8947 8.9289 59.895 11.6786 59.895 14.8862V24.7202C59.8597 30.4305 56.4332 33.5326 50.7466 33.5327C47.2499 33.5327 43.4001 32.1228 42.3403 27.4351L45.7661 26.5181C46.2959 30.043 48.9453 31.9468 51.5591 31.9468C55.1969 31.9466 56.7515 29.3024 56.7515 24.7202L56.7153 20.4204C55.8675 22.9934 53.5365 25.1431 50.1812 25.1431C45.6954 25.143 42.3042 21.9002 42.3042 16.1899C42.3044 10.4799 46.1192 6.81411 50.6401 6.81396C53.8897 6.81396 56.2915 8.54147 57.1392 10.4097C57.563 8.82347 58.6586 7.51894 59.9302 6.81396H60.3892ZM80.4253 6.81396C79.9308 8.9289 79.9312 11.6786 79.9312 14.8862V24.7202C79.8958 30.4305 76.4694 33.5327 70.7827 33.5327C67.2861 33.5326 63.4362 32.1228 62.3765 27.4351L65.8022 26.5181C66.3321 30.0429 68.9815 31.9467 71.5952 31.9468C75.2333 31.9468 76.7876 29.3026 76.7876 24.7202L76.7524 20.4204C75.9047 22.9934 73.5735 25.1429 70.2183 25.1431C65.7325 25.1431 62.3413 21.9003 62.3413 16.1899C62.3415 10.4798 66.1562 6.81396 70.6772 6.81396C73.9267 6.81405 76.3286 8.54152 77.1763 10.4097C77.6001 8.82351 78.6948 7.51896 79.9663 6.81396H80.4253ZM27.7915 18.2534C27.7915 20.6919 28.7826 22.9907 31.5767 22.9907C34.3705 22.9905 36.5649 20.6228 36.5649 16.4497V10.8989C36.5649 8.91992 35.5392 8.24824 34.1245 7.36475V7.15283H39.7515V20.8696C39.7515 23.2727 40.2471 23.5912 41.8032 24.5825V24.8296H36.5669V20.3745C35.5766 23.4861 33.3839 25.1831 30.3042 25.1831C26.6613 25.1831 24.6421 22.7796 24.6421 18.9243V10.8989C24.6421 8.91992 23.581 8.24824 22.2017 7.36475V7.15283H27.7925L27.7915 18.2534ZM100.597 6.78955C100.101 8.91084 100.1 11.6714 100.1 14.8901V20.8677C100.1 23.2717 100.597 23.5899 102.157 24.5815V24.8296H96.9429L96.9077 20.4429C96.0568 23.0237 93.7167 25.183 90.3452 25.1831C85.84 25.1831 82.4351 21.9287 82.4351 16.1987C82.4351 10.4689 86.2639 6.78967 90.8062 6.78955C94.0682 6.78955 96.4818 8.52238 97.3335 10.3979C97.759 8.80628 98.8594 7.497 100.136 6.78955H100.597ZM107.267 11.564C108.11 8.95454 110.429 6.83649 113.769 6.83643C118.198 6.83643 121.607 10.0823 121.607 15.7271C121.607 21.5134 117.813 25.1831 113.277 25.1831C110.045 25.1831 107.724 23.4553 106.81 21.5493C106.422 23.1721 105.332 24.4775 104.067 25.1831H103.646C104.103 23.0673 104.102 20.3142 104.102 17.1743V3.94287C104.102 1.96814 103.083 1.29801 101.643 0.45166V0.134277H107.267V11.564ZM138.86 6.78955C143.818 6.78968 146.667 10.0796 146.667 15.6675H133.865C133.865 20.3358 136.115 23.2358 139.95 23.2358C142.691 23.2357 144.661 21.8925 145.751 19.1001L146.49 19.3472C145.681 23.0589 143.045 25.183 139 25.1831C134.287 25.1831 130.454 21.929 130.454 16.1997C130.454 10.4703 134.217 6.78955 138.86 6.78955ZM11.2368 0.134277C16.3434 0.134277 20.4641 1.8617 20.4644 6.65869C20.4644 11.0319 16.8027 12.7953 13.1733 12.8306V12.9722C16.3063 13.3599 17.8233 14.8753 18.6685 17.4507L19.689 20.4116C20.4986 22.9144 21.6249 23.6922 23.7017 24.5386V24.8198H18.0708C17.402 23.3747 17.1908 22.7402 16.522 21.0112L15.395 17.6626C14.4446 14.913 13.4937 13.5718 10.1118 13.5718H5.49854L5.49756 20.8345C5.49756 23.1963 6.09591 23.6193 7.8208 24.5376V24.8198H0.10791V24.5376C1.7624 23.6211 2.32568 23.198 2.32568 20.8345V4.11768C2.32566 1.75602 1.76236 1.333 0.10791 0.416504V0.134277H11.2368ZM127.583 20.9761C127.584 23.3026 128.079 23.6202 129.6 24.5737V24.8198H122.487V24.5737C124.008 23.622 124.503 23.3043 124.503 20.9761V3.80029C124.503 1.86174 123.442 1.22728 122.098 0.381348V0.134277H127.583V20.9761ZM112.677 8.81201C109.445 8.81206 107.264 11.9154 107.264 15.3745V17.7739C107.264 21.5825 110.145 23.3832 112.572 23.3833C115.909 23.3833 118.161 20.562 118.161 15.7271C118.161 11.5641 116.087 8.81201 112.677 8.81201ZM91.5171 8.55811C88.1488 8.55822 85.9126 11.4224 85.9126 16.1987C85.9126 20.4413 87.9692 23.2026 91.4468 23.2026C94.7439 23.2024 96.9095 20.1264 96.9097 16.6587V14.2534C96.9097 10.329 94.0016 8.55811 91.5171 8.55811ZM51.3472 8.57666C47.9917 8.57666 45.7662 11.4315 45.7661 16.1899C45.7661 20.4197 47.8146 23.1693 51.2759 23.1694C54.5606 23.1694 56.7152 20.1032 56.7153 16.6489V14.2515C56.7153 10.3391 53.8196 8.57682 51.3472 8.57666ZM71.3833 8.57666C68.0279 8.57673 65.8024 11.4316 65.8022 16.1899C65.8022 20.4198 67.8515 23.1694 71.313 23.1694C74.5976 23.1693 76.7523 20.1031 76.7524 16.6489V14.2515C76.7524 10.3389 73.8558 8.57666 71.3833 8.57666ZM138.824 8.24072C135.976 8.24072 134.251 10.6799 133.935 14.2886H143.255C143.185 11.213 142.271 8.24073 138.824 8.24072ZM5.49756 12.1587H10.7095C14.0537 12.1587 16.9429 10.8892 16.9429 6.69189C16.9427 2.99079 14.4084 1.5083 10.7095 1.5083H5.49756V12.1587Z" fill="#54504A"/>
</svg>
