<svg width="126" height="55" viewBox="0 0 126 55" fill="none" xmlns="http://www.w3.org/2000/svg">
<path d="M21.3953 42.7612H25.4663V54.7586H27.0464V42.7612H31.1199V41.5737H21.3953V42.7612ZM40.9312 47.2286H34.6033V41.5737H33.0232V54.761H34.6045V48.4149H40.9312V54.761H42.5089V41.5737H40.9312V47.2286ZM50.7643 5.42442V32.4489H53.1748V5.42442C53.1732 3.98606 52.601 2.60709 51.5838 1.59013C50.5666 0.573175 49.1875 0.00129964 47.7492 8.80326e-06C47.0324 -0.00128544 46.3226 0.140141 45.6612 0.416039C44.9997 0.691938 44.3997 1.09679 43.8964 1.60697L42.5845 2.97252L27.3232 19.158H7.34959L6.6595 19.1165H6.58756C4.84156 19.1181 3.16748 19.8122 1.93253 21.0464C0.697573 22.2807 0.0025821 23.9544 0 25.7004V37.9623C0.00129136 39.4009 0.573334 40.7802 1.59056 41.7974C2.60778 42.8146 3.98706 43.3866 5.42563 43.3879C6.14308 43.3888 6.85351 43.2467 7.51543 42.9699C8.17736 42.6932 8.77752 42.2874 9.28087 41.7761L12.2729 38.6329L28.3632 21.5672H41.6334V19.1592H30.6322L44.3255 4.63557L45.6155 3.29318C45.8946 3.0127 46.2266 2.79037 46.5922 2.63906C46.9578 2.48775 47.3498 2.41046 47.7455 2.41167C48.5451 2.41264 49.3116 2.73079 49.8769 3.2963C50.4422 3.86181 50.76 4.62848 50.7607 5.42807L50.7643 5.42442ZM10.5269 36.9747L7.55686 40.0936C7.13465 40.5143 6.5973 40.8005 6.01259 40.9162C5.42788 41.0319 4.822 40.9719 4.27138 40.7437C3.72076 40.5154 3.25006 40.1292 2.91865 39.6338C2.58725 39.1384 2.40999 38.5559 2.40922 37.9599V25.698C2.41015 24.5962 2.84606 23.5394 3.62215 22.7574C4.39823 21.9753 5.45171 21.5314 6.55342 21.5221L7.23986 21.5647H25.053L10.5269 36.9747ZM47.4175 48.4344H53.2675V47.2505H47.4175V42.7637H53.4259V41.5749H45.835V54.761H53.5247V53.5747H47.4175V48.4344ZM60.5866 41.5737L55.9425 54.761H57.8006L58.9467 51.4203H64.3845L65.5501 54.761H67.7264L62.9409 41.5749H60.5878L60.5866 41.5737ZM59.4197 49.9767L61.6144 43.255L63.8663 49.9767H59.4197ZM76.4806 52.9602C75.749 53.176 74.8212 53.3552 73.9507 53.3552C72.7838 53.3552 72.0547 52.9992 71.4805 52.2092C70.8672 51.3411 70.5307 49.8975 70.5307 48.1369C70.5307 44.6986 71.6987 43.0392 74.1482 43.0392C75.0004 43.0392 76.2245 43.216 77.7279 43.5513L78.0437 42.1077C76.2648 41.5737 75.0187 41.3762 73.9507 41.3762C70.3746 41.3762 68.358 43.7879 68.358 48.1966C68.358 52.6042 70.2747 54.9951 73.5556 54.9951C74.9212 54.9951 76.383 54.6793 78.4387 53.849V48.5307H76.4806V52.9602ZM83.1474 48.5929H88.8998V47.1298H83.1474V43.0575H89.0778V41.5737H81.0893V54.761H89.1558V53.2796H83.1462V48.5917L83.1474 48.5929ZM99.6267 52.8017L94.201 41.5737H91.3919V54.761H93.083V43.633L98.5086 54.761H101.317V41.5737H99.6255V52.8017H99.6267ZM109.388 53.2979C107.235 53.2979 106.068 51.4593 106.068 48.0418C106.068 44.9181 107.195 43.0405 109.685 43.0405C110.496 43.0405 111.425 43.1404 112.71 43.416L113.046 41.9322C111.623 41.5371 110.475 41.3591 109.449 41.3591C105.911 41.3591 103.894 43.8098 103.894 48.221C103.894 52.631 105.831 55 109.012 55C110.199 55 111.663 54.7025 113.361 54.0319L112.905 52.6078C111.207 53.1029 110.178 53.3004 109.388 53.3004V53.2979ZM123.486 41.5737L120.225 47.4053L116.925 41.5737H114.532L118.999 48.9684V54.7598H121.056V48.9684L125.503 41.5737H123.486Z" fill="#54504A"/>
</svg>
