<svg width="120" height="20" viewBox="0 0 120 20" fill="none" xmlns="http://www.w3.org/2000/svg">
<path d="M9.29595 0C10.6228 0 11.8073 0.226543 12.8486 0.680023C13.9067 1.1335 14.7973 1.73014 15.5195 2.46914C16.2415 3.19125 16.7622 3.98051 17.0813 4.83692L14.436 6.12218C14.0497 5.09765 13.4111 4.27447 12.5209 3.65303C11.6307 3.01482 10.5556 2.69549 9.29595 2.69549C8.0533 2.69555 6.95342 2.98953 5.99621 3.57726C5.03886 4.1651 4.29087 4.97949 3.75341 6.02081C3.23278 7.06209 2.97303 8.2799 2.97301 9.67385C2.97301 11.0679 3.24154 12.2943 3.779 13.3525C4.33325 14.3937 5.0891 15.2082 6.0464 15.796C7.00375 16.3671 8.10425 16.6522 9.34712 16.6522C10.3882 16.6522 11.3368 16.4422 12.1932 16.0224C13.0666 15.5857 13.7638 14.9812 14.2844 14.2086C14.805 13.4193 15.0658 12.5042 15.0658 11.463V11.3872H9.29595V8.86786H18.0132V10.6314C18.0132 12.0086 17.7779 13.2429 17.3076 14.3346C16.8374 15.4095 16.1997 16.3255 15.3935 17.0813C14.5875 17.837 13.6634 18.4073 12.6223 18.7936C11.581 19.1799 10.4891 19.3732 9.34712 19.3733C8.02027 19.3733 6.78501 19.1301 5.64291 18.6431C4.51785 18.1561 3.52733 17.484 2.67089 16.6276C1.83121 15.7543 1.17587 14.7297 0.70561 13.5542C0.235335 12.3785 0 11.0847 0 9.67385C2.1271e-05 8.27989 0.226565 6.9947 0.680023 5.81907C1.15029 4.6267 1.80559 3.60219 2.6453 2.74568C3.48503 1.87239 4.46751 1.20047 5.59272 0.730213C6.71792 0.24319 7.95246 4.76376e-05 9.29595 0Z" fill="#111827"/>
<path fill-rule="evenodd" clip-rule="evenodd" d="M35.9704 5.13905C37.3139 5.13905 38.5151 5.44964 39.5732 6.071C40.6481 6.67562 41.4967 7.51548 42.1181 8.59034C42.7563 9.64836 43.0746 10.8663 43.0747 12.2434C43.0747 13.6205 42.7563 14.8471 42.1181 15.922C41.4799 16.9969 40.6226 17.8455 39.5476 18.4669C38.4728 19.0714 37.2802 19.3733 35.9704 19.3733C34.6604 19.3733 33.4592 19.0627 32.3675 18.4413C31.2928 17.8199 30.4362 16.9712 29.798 15.8964C29.1599 14.8216 28.8405 13.6037 28.8405 12.2434C28.8405 10.8663 29.1598 9.64836 29.798 8.59034C30.4362 7.51556 31.2927 6.6756 32.3675 6.071C33.4424 5.4496 34.6436 5.13908 35.9704 5.13905ZM35.9704 7.78435C35.1811 7.78438 34.4671 7.97773 33.8289 8.36399C33.2076 8.75028 32.7124 9.2796 32.3429 9.95137C31.9903 10.6231 31.8135 11.387 31.8135 12.2434C31.8135 13.0999 31.9902 13.8733 32.3429 14.5619C32.7123 15.2335 33.2078 15.7621 33.8289 16.1483C34.4671 16.5346 35.1811 16.728 35.9704 16.728C36.7766 16.728 37.4904 16.5346 38.1118 16.1483C38.7331 15.7621 39.2205 15.2336 39.5732 14.5619C39.9427 13.8733 40.1273 13.0999 40.1273 12.2434C40.1272 11.387 39.9426 10.6231 39.5732 9.95137C39.2205 9.27955 38.7332 8.75029 38.1118 8.36399C37.4904 7.97775 36.7765 7.78435 35.9704 7.78435Z" fill="#111827"/>
<path d="M48.1673 6.46367L48.1724 13.6044C48.1724 14.2258 48.2984 14.7717 48.5503 15.242C48.8022 15.7121 49.1549 16.0814 49.6082 16.3501C50.0617 16.602 50.5823 16.728 51.17 16.728C51.7746 16.728 52.304 16.5941 52.7574 16.3255C53.2108 16.0568 53.5634 15.6787 53.8153 15.1918C54.084 14.7048 54.2188 14.1334 54.2188 13.4784V5.13905L57.0325 6.46367L57.0403 19.0712H54.3448V17.3844C54.0287 17.9241 53.6011 18.361 53.0595 18.6933C52.3206 19.1467 51.4553 19.3733 50.4644 19.3733C49.4401 19.3732 48.5414 19.1467 47.7689 18.6933C46.9964 18.223 46.3919 17.5764 45.9552 16.7536C45.5353 15.9138 45.3254 14.948 45.3254 13.8563L45.3203 5.13905L48.1673 6.46367Z" fill="#111827"/>
<path fill-rule="evenodd" clip-rule="evenodd" d="M88.1757 19.0712H85.4802V17.3234C85.0422 17.9079 84.4811 18.3745 83.7924 18.7188C82.9192 19.1554 81.9619 19.3732 80.9208 19.3733C79.6109 19.3733 78.435 19.0626 77.3937 18.4413C76.3692 17.8031 75.5538 16.9467 74.9492 15.8718C74.3614 14.7969 74.0674 13.587 74.0674 12.2434C74.0675 10.8999 74.3702 9.69074 74.9748 8.61593C75.5794 7.54101 76.3938 6.69244 77.4183 6.071C78.4429 5.44958 79.602 5.13905 80.8952 5.13905C81.9869 5.13905 82.9527 5.35778 83.7924 5.79447C84.4079 6.11453 84.9282 6.5251 85.3542 7.0256V0H88.1757V19.0712ZM81.1973 7.78435C80.408 7.78438 79.6941 7.97773 79.0559 8.36399C78.4177 8.75028 77.9226 9.2796 77.5699 9.95137C77.2173 10.6231 77.0405 11.387 77.0404 12.2434C77.0404 13.0999 77.2172 13.8733 77.5699 14.5619C77.9226 15.2336 78.41 15.7621 79.0313 16.1483C79.6695 16.5346 80.3913 16.728 81.1973 16.728C81.9867 16.728 82.6927 16.5346 83.3142 16.1483C83.9521 15.7621 84.4476 15.2335 84.8002 14.5619C85.1697 13.8733 85.3542 13.0999 85.3542 12.2434C85.3542 11.387 85.1696 10.6231 84.8002 9.95137C84.4475 9.27965 83.9523 8.75027 83.3142 8.36399C82.6927 7.97769 81.9867 7.78435 81.1973 7.78435Z" fill="#111827"/>
<path fill-rule="evenodd" clip-rule="evenodd" d="M97.4205 5.13905C98.4448 5.13909 99.3601 5.31584 100.166 5.6685C100.972 6.02121 101.653 6.50849 102.207 7.12991C102.761 7.7344 103.181 8.43105 103.467 9.22017C103.769 10.0094 103.92 10.8495 103.92 11.7395C103.92 11.9578 103.912 12.1854 103.895 12.4205C103.878 12.6555 103.844 12.8735 103.794 13.0749H93.6513C93.6838 13.6596 93.813 14.1888 94.044 14.6623C94.3966 15.3509 94.884 15.888 95.5054 16.2743C96.1436 16.6606 96.8662 16.854 97.6724 16.854C98.4951 16.8539 99.1918 16.6692 99.7627 16.2999C100.35 15.9305 100.812 15.4518 101.148 14.8641L103.467 15.9978C103.198 16.6359 102.778 17.2151 102.207 17.7357C101.653 18.2395 100.981 18.6429 100.192 18.9452C99.4191 19.2307 98.5706 19.3733 97.6468 19.3733C96.2865 19.3733 95.0774 19.0626 94.0194 18.4413C92.978 17.8031 92.1627 16.9467 91.5748 15.8718C90.987 14.7801 90.6931 13.5623 90.6931 12.2188C90.6931 10.8417 90.9871 9.62378 91.5748 8.56574C92.1795 7.50762 92.986 6.67564 93.9938 6.071C95.0015 5.44964 96.1441 5.13905 97.4205 5.13905ZM97.4205 7.53241C96.6648 7.53241 95.9928 7.72588 95.405 8.11206C94.8172 8.48152 94.3631 9.01875 94.044 9.72404C93.8925 10.0509 93.7866 10.4126 93.7222 10.8075H100.908C100.89 10.3925 100.804 10.0064 100.644 9.64925C100.376 8.99422 99.9558 8.48156 99.3848 8.11206C98.8307 7.72595 98.176 7.53248 97.4205 7.53241Z" fill="#111827"/>
<path fill-rule="evenodd" clip-rule="evenodd" d="M120 19.0712H117.305V17.3234C116.866 17.9079 116.305 18.3745 115.617 18.7188C114.744 19.1554 113.786 19.3732 112.745 19.3733C111.435 19.3733 110.259 19.0626 109.218 18.4413C108.194 17.8031 107.378 16.9467 106.773 15.8718C106.186 14.7969 105.892 13.587 105.892 12.2434C105.892 10.8999 106.194 9.69074 106.799 8.61593C107.404 7.54101 108.218 6.69244 109.243 6.071C110.267 5.44958 111.426 5.13905 112.72 5.13905C113.811 5.13905 114.777 5.35778 115.617 5.79447C116.232 6.11453 116.753 6.5251 117.179 7.0256V0H120V19.0712ZM113.022 7.78435C112.232 7.78438 111.518 7.97773 110.88 8.36399C110.242 8.75028 109.747 9.2796 109.394 9.95137C109.042 10.6231 108.865 11.387 108.865 12.2434C108.865 13.0999 109.041 13.8733 109.394 14.5619C109.747 15.2336 110.234 15.7621 110.856 16.1483C111.494 16.5346 112.216 16.728 113.022 16.728C113.811 16.728 114.517 16.5346 115.138 16.1483C115.776 15.7621 116.272 15.2335 116.624 14.5619C116.994 13.8733 117.179 13.0999 117.179 12.2434C117.178 11.387 116.994 10.6231 116.624 9.95137C116.272 9.27965 115.777 8.75027 115.138 8.36399C114.517 7.97769 113.811 7.78435 113.022 7.78435Z" fill="#111827"/>
<path d="M66.6875 5.13905C67.6953 5.13905 68.5858 5.35778 69.3584 5.79447C70.1309 6.23114 70.7355 6.83567 71.1722 7.60819C71.6088 8.38079 71.8276 9.27135 71.8276 10.2791V17.7584L69.0051 19.0712V11.0349C69.0051 10.3463 68.8792 9.76622 68.6272 9.29595C68.3754 8.80917 68.0147 8.43971 67.5447 8.18784C67.0912 7.91911 66.5698 7.78435 65.9819 7.78435C65.3943 7.78441 64.8657 7.91925 64.3955 8.18784C63.9421 8.43977 63.5886 8.80888 63.3366 9.29595C63.0847 9.78302 62.9587 10.3631 62.9587 11.0349V17.7475L60.1127 19.0712V5.44117H62.8328V7.09744C63.1564 6.56201 63.5836 6.13488 64.118 5.81907C64.8569 5.36569 65.7136 5.13908 66.6875 5.13905Z" fill="#111827"/>
<path d="M27.6999 7.86013H26.515C25.5747 7.86021 24.8107 8.15419 24.223 8.74189C23.652 9.31294 23.3658 10.1361 23.3658 11.211V17.7475L20.5198 19.0712V5.44117H23.2399V7.18502C23.5368 6.60176 23.9396 6.16341 24.4493 5.87024C25.1212 5.46715 25.9277 5.26501 26.8683 5.26501H27.6999V7.86013Z" fill="#111827"/>
</svg>
