<svg width="171" height="171" viewBox="0 0 171 171" fill="none" xmlns="http://www.w3.org/2000/svg">
<rect width="171" height="171" fill="#1A1814"/>
<path d="M40 51C40 48.7909 41.7909 47 44 47H127C129.209 47 131 48.7909 131 51V63C131 65.2091 129.209 67 127 67H40V51Z" fill="white"/>
<path d="M68 76L119 76C121.209 76 123 77.7909 123 80V92C123 94.2091 121.209 96 119 96H68V76Z" fill="#C8622A"/>
<path d="M68 104H127C129.209 104 131 105.791 131 108V120C131 122.209 129.209 124 127 124H68V104Z" fill="white"/>
<path d="M44 124C41.7909 124 40 122.209 40 120L40 76L60 76L60 124L44 124Z" fill="white"/>
</svg>
